<svg xmlns="http://www.w3.org/2000/svg" viewBox="0 0 1809.57 1028.48">
  <title>background-list</title>
  <g>
    <path d="M923.06,84.68l-.27-1c.17-2.06,1.76-2.53,3.38-2.88l-1-3.86c-3,.5-3,.5-4.33-.77l-.27-1c.14-2.08,1.68-2.59,3.49-2.92-.68-2.1-1.3-4.15,1-5.59l33.58-8.74,2.63,1.54,11.45,44-1.13,2.6-34.38,9.1a4.55,4.55,0,0,1-1.52-.91,4.85,4.85,0,0,1-1.49-3c-1.66.63-3.17.87-4.37-.63l-.27-1c.08-2.13,1.71-2.57,3.38-2.92l-1-3.86c-3,.54-3.16.5-4.38-.93l-.27-1c.25-2,1.8-2.43,3.43-2.76l-1-3.95c-1.65.6-3.2.84-4.36-.81l-.27-1c.22-2,1.76-2.49,3.43-2.83l-1-3.9C925.83,85.95,924.24,86.32,923.06,84.68Zm9.82-18.83,11.9,45.73c.27,0,.45-.06.62-.11q12.14-3.16,24.28-6.32c1.59-.42,2-1.18,1.5-2.94l-10.66-41c-.51-2-1.12-2.3-3.11-1.79L934,65.56ZM932,97.65c1-.26,1.85-.5,2.72-.7,1.63-.39,2.81.26,3.16,1.71a2.38,2.38,0,0,1-2,2.94c-.89.25-1.78.47-2.68.7l1,3.94c1-.26,1.92-.52,2.86-.74a2.39,2.39,0,1,1,1.17,4.63c-.92.26-1.86.49-2.76.72.18,1.89.77,2.79,1.91,2.58,2-.39,4-1,6-1.52L931.52,66.2l-4.45,1.16c-2.56.67-2.77,1-2.06,3.62.07.26.18.52.3.85,1-.25,1.86-.5,2.76-.72a2.36,2.36,0,0,1,3.08,1.71,2.32,2.32,0,0,1-1.83,2.91c-.92.26-1.85.49-2.83.74l1,4c.94-.25,1.83-.49,2.73-.71a2.41,2.41,0,1,1,1.24,4.64c-.88.27-1.79.47-2.72.71l1,3.94,2.38-.62c1.83-.46,3,.1,3.44,1.58s-.38,2.6-2.18,3.08l-2.46.64Zm-3.56-13.73c.93-.24,1.87-.47,2.8-.73a1.18,1.18,0,1,0-.61-2.28l-5.5,1.44c-.73.19-1.13.64-1,1.41s.81,1,1.57.86S927.54,84.16,928.44,83.92Zm1.67,6.29-2.7.7c-.76.2-1.21.67-1,1.49s.84,1,1.6.79l5.4-1.4c.79-.2,1.21-.72,1-1.49s-.85-1-1.62-.79ZM925.72,73h0c-1,.25-1.94.49-2.91.76a1.08,1.08,0,0,0-.89,1.36,1.1,1.1,0,0,0,1.45.91c1.91-.45,3.82-1,5.71-1.48a1.18,1.18,0,1,0-.66-2.25Zm7.18,28.08,2.8-.73a1.14,1.14,0,0,0,1-1.41,1.17,1.17,0,0,0-1.58-.87c-1.84.46-3.68.93-5.5,1.43a1.14,1.14,0,0,0-.93,1.53c.23.78.82.93,1.53.75C931.11,101.57,932,101.33,932.9,101.09Zm2.31,8.58c.93-.24,1.87-.47,2.8-.73a1.12,1.12,0,0,0,.89-1.47,1.1,1.1,0,0,0-1.43-.8q-2.86.7-5.7,1.48a1.09,1.09,0,0,0-.87,1.46,1.12,1.12,0,0,0,1.52.78C933.36,110.18,934.28,109.92,935.22,109.67Z" transform="translate(-57.4 -20.74)" fill="#b2edf5"/>
    <g>
      <path d="M266.62,320.62l1.93-.86,9.23,20.61a6.08,6.08,0,0,1,6.17-2.78c-.19-.54-.3-.94-.47-1.32q-6.53-14.59-13.07-29.18c-.94-2.1-2.45-2.94-4.3-2.46a3.39,3.39,0,0,0-2.18,4.61c.53,1.37,1.19,2.69,1.83,4.12l-2,.89a46.41,46.41,0,0,1-2.25-5.13,5.62,5.62,0,0,1,9.2-5.46,1.82,1.82,0,0,0,2.42.31q18.35-8.27,36.74-16.47c.39-.18.81-.31,1.27-.49l.88,2-39.29,17.6,14.82,33.09,49.66-22.24-14.81-33.06-4,1.8-.88-2,6.07-2.72,16.64,37.16-53.73,24.06c-.26-.43-.52-.88-.81-1.32a3.39,3.39,0,1,0-2.16,5.13,7.6,7.6,0,0,0,1.52-.57l43.09-19.3,1.66-.75.89,2c-.4.21-.8.46-1.23.65q-21.88,9.81-43.77,19.6c-3.66,1.64-6.63.51-8.26-3.12q-5.19-11.54-10.35-23.1C266.92,321.51,266.79,321.09,266.62,320.62Z" transform="translate(-57.4 -20.74)" fill="#b2edf5"/>
      <path d="M306.59,304.41l16.18,8.3L288.59,328l5.15-21.68,10.81,5.83Zm-14.75,19.78c3.68-1.65,7-3.15,10.4-4.68a1.32,1.32,0,0,0,.61-.75,36.41,36.41,0,0,0,.92-3.57,1.21,1.21,0,0,0-.44-1c-2.61-1.47-5.26-2.87-8-4.36Zm16.23-16.46L305.4,318l12.11-5.43Z" transform="translate(-57.4 -20.74)" fill="#b2edf5"/>
      <path d="M312.84,296.14a4.52,4.52,0,1,1-2.31,6A4.55,4.55,0,0,1,312.84,296.14Zm2.79,6.2a2.28,2.28,0,1,0-3-1.14A2.27,2.27,0,0,0,315.63,302.34Z" transform="translate(-57.4 -20.74)" fill="#b2edf5"/>
      <path d="M342.1,322.78,333,326.87l-.85-1.91,9.13-4.09Z" transform="translate(-57.4 -20.74)" fill="#b2edf5"/>
      <path d="M316.16,287.09l-1.89.84-.86-1.93,1.89-.84Z" transform="translate(-57.4 -20.74)" fill="#b2edf5"/>
      <path d="M265.62,318.39l-.82-1.84,1.87-.84.82,1.84Z" transform="translate(-57.4 -20.74)" fill="#b2edf5"/>
    </g>
    <g>
      <path d="M1597.68,38l2.11-.06.62,22.57a6.08,6.08,0,0,1,6.77-.2c0-.57.09-1,.08-1.4q-.43-16-.88-32c-.07-2.3-1.14-3.66-3-3.92a3.39,3.39,0,0,0-3.78,3.42c0,1.47.07,2.94.11,4.5l-2.17.06a46.41,46.41,0,0,1-.11-5.6A5.62,5.62,0,0,1,1608,23.89a1.82,1.82,0,0,0,2.12,1.21q20.12-.6,40.24-1.12c.43,0,.87,0,1.36,0l.06,2.16-43,1.19,1,36.24,54.39-1.5-1-36.21-4.39.12-.06-2.15,6.65-.18,1.12,40.7L1607.58,66c-.08-.5-.14-1-.24-1.53a3.39,3.39,0,1,0-4,3.91,7.6,7.6,0,0,0,1.62.06l47.2-1.3,1.82-.05.06,2.17c-.45,0-.92.12-1.38.13q-24,.67-47.94,1.32c-4,.11-6.32-2.07-6.43-6q-.37-12.65-.7-25.3C1597.62,38.92,1597.66,38.49,1597.68,38Z" transform="translate(-57.4 -20.74)" fill="#b2edf5"/>
      <path d="M1640.81,38.34l11.76,13.87-37.44,1,13.07-18,7.74,9.53ZM1619.6,51c4-.11,7.71-.2,11.4-.33a1.32,1.32,0,0,0,.85-.46,36.41,36.41,0,0,0,2.22-2.95,1.21,1.21,0,0,0,0-1.12c-1.85-2.36-3.76-4.67-5.74-7.1Zm21.3-9-6.4,8.48,13.27-.37Z" transform="translate(-57.4 -20.74)" fill="#b2edf5"/>
      <path d="M1649.75,33.11a4.52,4.52,0,1,1-4.42,4.61A4.55,4.55,0,0,1,1649.75,33.11Zm.2,6.79a2.28,2.28,0,1,0-2.32-2.2A2.27,2.27,0,0,0,1650,39.9Z" transform="translate(-57.4 -20.74)" fill="#b2edf5"/>
      <path d="M1666.56,68.93l-10,.28-.06-2.09,10-.28Z" transform="translate(-57.4 -20.74)" fill="#b2edf5"/>
      <path d="M1656.29,26l-2.07.06-.06-2.11,2.07-.06Z" transform="translate(-57.4 -20.74)" fill="#b2edf5"/>
      <path d="M1597.61,35.54l-.06-2,2-.06.06,2Z" transform="translate(-57.4 -20.74)" fill="#b2edf5"/>
    </g>
    <g>
      <path d="M683.43,976.08l1.83,1.06-11.33,19.53a6.08,6.08,0,0,1,5.86,3.38c.33-.47.59-.79.8-1.15q8-13.82,16-27.66c1.15-2,1-3.71-.52-4.93a3.39,3.39,0,0,0-5,.92c-.8,1.23-1.49,2.54-2.27,3.89L686.95,970a46.41,46.41,0,0,1,2.85-4.83,5.62,5.62,0,0,1,9.8,4.28,1.82,1.82,0,0,0,1.16,2.14q17.44,10.05,34.83,20.18c.37.22.73.47,1.14.75l-1.08,1.87-37.24-21.6-18.18,31.36,47.07,27.29,18.17-31.34-3.8-2.2,1.08-1.86,5.76,3.34-20.42,35.22-50.93-29.53c.2-.47.41-.94.6-1.43a3.39,3.39,0,1,0-5.42,1.25,7.6,7.6,0,0,0,1.35.9l40.84,23.68,1.58.91-1.09,1.87c-.4-.2-.84-.38-1.25-.62q-20.75-12-41.48-24.06c-3.47-2-4.29-5.08-2.3-8.53q6.33-11,12.7-21.9C682.89,976.85,683.15,976.5,683.43,976.08Z" transform="translate(-57.4 -20.74)" fill="#b2edf5"/>
      <path d="M719.95,999l2.73,18-32.4-18.79,20.6-8.49,1.58,12.18Zm-24.67-.41c3.49,2,6.67,3.88,9.87,5.7a1.32,1.32,0,0,0,1,.05,36.41,36.41,0,0,0,3.44-1.34,1.21,1.21,0,0,0,.57-1c-.34-3-.75-6-1.15-9.06Zm22.84,3.55-9.9,3.85,11.48,6.66Z" transform="translate(-57.4 -20.74)" fill="#b2edf5"/>
      <path d="M730.31,999.28a4.52,4.52,0,1,1-6.18,1.6A4.55,4.55,0,0,1,730.31,999.28Zm-3.4,5.89a2.28,2.28,0,1,0-.82-3.09A2.27,2.27,0,0,0,726.91,1005.17Z" transform="translate(-57.4 -20.74)" fill="#b2edf5"/>
      <path d="M725.79,1038.59l-8.65-5,1-1.81,8.65,5Z" transform="translate(-57.4 -20.74)" fill="#b2edf5"/>
      <path d="M739.59,996.69l-1.79-1,1.06-1.83,1.79,1Z" transform="translate(-57.4 -20.74)" fill="#b2edf5"/>
      <path d="M684.66,974l1-1.74,1.77,1-1,1.74Z" transform="translate(-57.4 -20.74)" fill="#b2edf5"/>
    </g>
    <path d="M444.13,611.16l.67-.84c1.75-1.09,3.08-.1,4.33,1l2.49-3.11c-2.22-2.14-2.22-2.14-2-3.94l.67-.84c1.75-1.13,3.08-.2,4.42,1.05,1.28-1.8,2.55-3.52,5.07-2.55l27.07,21.71.33,3-28.45,35.47-2.76.64-27.83-22.14a4.55,4.55,0,0,1-.18-1.77,4.85,4.85,0,0,1,1.51-3c-1.5-1-2.6-2-2.11-3.88l.67-.84c1.76-1.21,3.08-.16,4.36,1l2.5-3.12c-2.21-2.08-2.29-2.24-1.87-4.07l.67-.84c1.74-1,3,0,4.26,1.11l2.55-3.18c-1.47-1-2.59-2.07-2-4l.67-.84c1.74-1,3-.07,4.32,1.06l2.52-3.14C444.76,614.14,443.51,613.09,444.13,611.16Zm21-3.37-29.57,36.86c.2.19.32.32.46.43q9.78,7.85,19.57,15.7c1.29,1,2.12.87,3.26-.55l26.48-33c1.26-1.58,1.18-2.28-.43-3.56L466,608.5Zm-26,18.28c.8.64,1.5,1.19,2.19,1.76,1.29,1.08,1.47,2.4.51,3.56a2.38,2.38,0,0,1-3.53.18c-.73-.56-1.44-1.15-2.16-1.73L433.52,633c.8.64,1.56,1.23,2.3,1.85a2.39,2.39,0,1,1-3,3.7c-.76-.59-1.5-1.2-2.23-1.79-1.41,1.27-1.78,2.29-.93,3.07,1.52,1.39,3.19,2.61,4.8,3.9L464,606.91,460.41,604c-2.07-1.66-2.48-1.61-4.13.52-.17.22-.31.45-.51.75.78.63,1.51,1.2,2.22,1.79a2.36,2.36,0,0,1,.47,3.5,2.32,2.32,0,0,1-3.42.27c-.76-.59-1.5-1.2-2.28-1.82l-2.56,3.19c.76.61,1.49,1.18,2.2,1.77a2.41,2.41,0,1,1-3,3.77c-.74-.55-1.45-1.15-2.2-1.76l-2.55,3.17,1.92,1.54c1.46,1.19,1.74,2.5.78,3.7s-2.31,1.25-3.77.09l-2-1.59ZM447.95,615c.75.6,1.5,1.22,2.26,1.81a1.18,1.18,0,1,0,1.46-1.85l-4.44-3.56a1.1,1.1,0,0,0-1.7.08,1.13,1.13,0,0,0,.24,1.77C446.48,613.88,447.22,614.44,447.95,615Zm-4,5.1-2.18-1.75a1.13,1.13,0,0,0-1.78.1c-.53.67-.29,1.26.33,1.76l4.35,3.5a1.16,1.16,0,0,0,1.8-.08,1.17,1.17,0,0,0-.34-1.77Zm11.17-13.79h0c-.78-.63-1.55-1.26-2.35-1.88a1.08,1.08,0,0,0-1.62.1,1.1,1.1,0,0,0,.14,1.7c1.51,1.26,3,2.49,4.6,3.69a1.18,1.18,0,1,0,1.41-1.88Zm-18.23,22.53,2.26,1.81a1.14,1.14,0,0,0,1.72-.06,1.17,1.17,0,0,0-.24-1.79c-1.47-1.2-2.94-2.39-4.44-3.56a1.14,1.14,0,0,0-1.79.16,1.11,1.11,0,0,0,.31,1.68C435.38,627.71,436.11,628.28,436.84,628.86Zm-5.5,7c.75.6,1.49,1.22,2.26,1.81a1.12,1.12,0,0,0,1.71-.16,1.1,1.1,0,0,0-.21-1.62q-2.27-1.88-4.6-3.69a1.09,1.09,0,0,0-1.69.17,1.12,1.12,0,0,0,.28,1.68C429.82,634.65,430.58,635.24,431.34,635.84Z" transform="translate(-57.4 -20.74)" fill="#b2edf5"/>
    <path d="M1429.27,516.17l.94-.53c2-.37,2.9,1,3.66,2.52l3.47-2c-1.27-2.81-1.27-2.81-.37-4.38l.94-.53c2-.41,2.94,1,3.72,2.61,1.85-1.2,3.67-2.33,5.65-.5l17.13,30.18-.81,2.94L1424,568.95l-2.8-.42-17.68-30.86a4.55,4.55,0,0,1,.49-1.71,4.85,4.85,0,0,1,2.51-2.22c-1-1.44-1.67-2.84-.52-4.39l.94-.53c2.08-.47,2.92,1,3.69,2.51l3.47-2c-1.29-2.75-1.3-2.93-.23-4.47l.94-.53c2-.27,2.81,1.11,3.55,2.6l3.55-2c-1-1.44-1.64-2.88-.35-4.42l.94-.53c2-.3,2.86,1.06,3.62,2.58l3.5-2C1428.76,519.16,1428,517.73,1429.27,516.17Zm20.73,4.61-41.09,23.33c.11.25.18.42.26.57q6.19,10.91,12.39,21.82c.82,1.43,1.64,1.59,3.23.69l36.81-20.89c1.76-1,1.93-1.68.92-3.47l-12-21.07Zm-31,7.37c.5.89,1,1.66,1.38,2.44.8,1.47.48,2.78-.84,3.5a2.38,2.38,0,0,1-3.35-1.13c-.47-.79-.91-1.6-1.37-2.41l-3.54,2c.51.9,1,1.72,1.45,2.57a2.39,2.39,0,1,1-4.17,2.32c-.49-.83-.95-1.67-1.41-2.48-1.78.66-2.5,1.47-2,2.51.9,1.85,2,3.6,3,5.39l41.07-23.32-2.27-4c-1.31-2.3-1.71-2.41-4-1-.24.14-.45.31-.75.51.49.87,1,1.67,1.41,2.48a2.36,2.36,0,0,1-.86,3.42,2.32,2.32,0,0,1-3.28-1c-.49-.82-.95-1.66-1.44-2.54l-3.55,2c.48.85,1,1.64,1.39,2.46a2.41,2.41,0,1,1-4.16,2.4c-.49-.79-.92-1.61-1.39-2.44l-3.54,2c.44.77.83,1.45,1.21,2.14.92,1.65.69,3-.64,3.73s-2.61.31-3.54-1.31c-.42-.73-.83-1.47-1.26-2.21Zm12.34-7c.48.84.94,1.69,1.44,2.52a1.18,1.18,0,1,0,2-1.18l-2.81-4.95a1.1,1.1,0,0,0-1.61-.56,1.13,1.13,0,0,0-.43,1.74C1430.46,519.55,1430.94,520.35,1431.4,521.16Zm-5.64,3.24c-.46-.81-.91-1.62-1.38-2.43s-1-1-1.69-.57-.73,1.07-.34,1.75c.92,1.62,1.84,3.23,2.76,4.86a1.16,1.16,0,0,0,1.7.59,1.17,1.17,0,0,0,.34-1.77C1426.67,526,1426.21,525.21,1425.75,524.41Zm15.47-8.69h0c-.49-.87-1-1.75-1.49-2.61a1.08,1.08,0,0,0-1.54-.51,1.1,1.1,0,0,0-.5,1.63c.93,1.73,1.91,3.44,2.91,5.13a1.18,1.18,0,1,0,2-1.22ZM1416,529.92l1.43,2.52a1.14,1.14,0,0,0,1.62.58,1.17,1.17,0,0,0,.43-1.75c-.92-1.66-1.85-3.31-2.81-4.94a1.14,1.14,0,0,0-1.72-.51,1.11,1.11,0,0,0-.33,1.68C1415,528.31,1415.5,529.11,1416,529.92Zm-7.69,4.46c.48.84.93,1.69,1.43,2.51a1.12,1.12,0,0,0,1.65.48,1.1,1.1,0,0,0,.4-1.59q-1.42-2.58-2.91-5.13a1.09,1.09,0,0,0-1.64-.47,1.12,1.12,0,0,0-.36,1.67C1407.3,532.71,1407.79,533.54,1408.27,534.37Z" transform="translate(-57.4 -20.74)" fill="#b2edf5"/>
    <path d="M740.06,835.68l-.27-1c.17-2.06,1.76-2.53,3.38-2.88l-1-3.86c-3,.5-3,.5-4.33-.77l-.27-1c.14-2.08,1.68-2.59,3.49-2.92-.68-2.1-1.3-4.15,1-5.59l33.58-8.74,2.63,1.54,11.45,44-1.13,2.6-34.38,9.1a4.55,4.55,0,0,1-1.52-.91,4.85,4.85,0,0,1-1.49-3c-1.66.63-3.17.87-4.37-.63l-.27-1c.08-2.13,1.71-2.57,3.38-2.92l-1-3.86c-3,.54-3.16.5-4.38-.93l-.27-1c.25-2,1.8-2.43,3.43-2.76l-1-3.95c-1.65.6-3.2.84-4.36-.81l-.27-1c.22-2,1.76-2.49,3.43-2.83l-1-3.9C742.83,836.95,741.24,837.32,740.06,835.68Zm9.82-18.83,11.9,45.73c.27,0,.45-.06.62-.11q12.14-3.16,24.28-6.32c1.59-.42,2-1.18,1.5-2.94l-10.66-41c-.51-2-1.12-2.3-3.11-1.79L751,816.56ZM749,848.65c1-.26,1.85-.5,2.72-.7,1.63-.39,2.81.26,3.16,1.71a2.38,2.38,0,0,1-2,2.94c-.89.25-1.78.47-2.68.7l1,3.94c1-.26,1.92-.52,2.86-.74a2.39,2.39,0,1,1,1.17,4.63c-.92.26-1.86.49-2.76.72.18,1.89.77,2.79,1.91,2.58,2-.39,4-1,6-1.52l-11.9-45.71-4.45,1.16c-2.56.67-2.77,1-2.06,3.62.07.26.18.52.3.85,1-.25,1.86-.5,2.76-.72a2.36,2.36,0,0,1,3.08,1.71,2.32,2.32,0,0,1-1.83,2.91c-.92.26-1.85.49-2.83.74l1,4c.94-.25,1.83-.49,2.73-.71a2.41,2.41,0,1,1,1.24,4.64c-.88.27-1.79.47-2.72.71l1,3.94,2.38-.62c1.83-.46,3,.1,3.44,1.58s-.38,2.6-2.18,3.08l-2.46.64Zm-3.56-13.73c.93-.24,1.87-.47,2.8-.73a1.18,1.18,0,1,0-.61-2.28l-5.5,1.44c-.73.19-1.13.64-1,1.41s.81,1,1.57.86S744.54,835.16,745.44,834.92Zm1.67,6.29-2.7.7c-.76.2-1.21.67-1,1.49s.84,1,1.6.79l5.4-1.4c.79-.2,1.21-.72,1-1.49s-.85-1-1.62-.79ZM742.72,824h0c-1,.25-1.94.49-2.91.76a1.08,1.08,0,0,0-.89,1.36,1.1,1.1,0,0,0,1.45.91c1.91-.45,3.82-1,5.71-1.48a1.18,1.18,0,1,0-.66-2.25Zm7.18,28.08,2.8-.73a1.14,1.14,0,0,0,1-1.41,1.17,1.17,0,0,0-1.58-.87c-1.84.46-3.68.93-5.5,1.43a1.14,1.14,0,0,0-.93,1.53c.23.78.82.93,1.53.75C748.11,852.57,749,852.33,749.9,852.09Zm2.31,8.58c.93-.24,1.87-.47,2.8-.73a1.12,1.12,0,0,0,.89-1.47,1.1,1.1,0,0,0-1.43-.8q-2.86.7-5.7,1.48a1.09,1.09,0,0,0-.87,1.46,1.12,1.12,0,0,0,1.52.78C750.36,861.18,751.28,860.92,752.22,860.67Z" transform="translate(-57.4 -20.74)" fill="#b2edf5"/>
    <g>
      <path d="M1478.69,720l1.68,1.29-13.73,17.92a6.08,6.08,0,0,1,5.38,4.1c.39-.42.69-.71.94-1q9.73-12.68,19.44-25.38c1.4-1.83,1.42-3.56.11-5a3.39,3.39,0,0,0-5.09.28c-1,1.12-1.8,2.33-2.75,3.57l-1.72-1.32a46.41,46.41,0,0,1,3.44-4.42,5.62,5.62,0,0,1,9.18,5.5,1.82,1.82,0,0,0,.88,2.28q16,12.2,32,24.47c.34.26.66.56,1,.89l-1.31,1.72L1494,718.73l-22,28.78,43.19,33.09,22-28.76-3.49-2.67,1.31-1.71,5.28,4-24.76,32.32L1468.75,748c.25-.44.53-.88.77-1.34a3.39,3.39,0,1,0-5.54.55,7.6,7.6,0,0,0,1.22,1.07L1502.69,777l1.45,1.11-1.32,1.72c-.38-.25-.78-.49-1.16-.77q-19-14.58-38.07-29.17c-3.18-2.44-3.6-5.59-1.19-8.75q7.68-10.06,15.39-20.09C1478.06,720.72,1478.36,720.41,1478.69,720Z" transform="translate(-57.4 -20.74)" fill="#b2edf5"/>
      <path d="M1512,747.47l.4,18.18-29.73-22.78,21.52-5.79v12.28Zm-24.42-3.56c3.2,2.45,6.12,4.7,9.06,6.92a1.32,1.32,0,0,0,.95.18,36.41,36.41,0,0,0,3.58-.89,1.21,1.21,0,0,0,.69-.88c0-3,0-6,0-9.13Zm22.2,6.44-10.31,2.55L1510,761Z" transform="translate(-57.4 -20.74)" fill="#b2edf5"/>
      <path d="M1522.22,749a4.52,4.52,0,1,1-6.34.8A4.55,4.55,0,0,1,1522.22,749Zm-4.12,5.41a2.28,2.28,0,1,0-.41-3.17A2.27,2.27,0,0,0,1518.1,754.44Z" transform="translate(-57.4 -20.74)" fill="#b2edf5"/>
      <path d="M1512.71,787.44l-7.94-6.08,1.27-1.66,7.94,6.08Z" transform="translate(-57.4 -20.74)" fill="#b2edf5"/>
      <path d="M1531.76,747.64l-1.64-1.26,1.29-1.68L1533,746Z" transform="translate(-57.4 -20.74)" fill="#b2edf5"/>
      <path d="M1480.18,718.08l1.23-1.6,1.63,1.25-1.23,1.6Z" transform="translate(-57.4 -20.74)" fill="#b2edf5"/>
    </g>
  </g>
  <g>
    <path d="M1323.75,196.2,1287,233.14c-2-2.32-4.82-4.45-6.13-7.28-3.65-7.87-8.73-15.38-5.93-25,4.63-16,23.26-22.88,36.81-13.31,1.14.8,2,2.45,3.92,1.36.19-.11.82.38,1.15.7C1319.2,191.81,1321.55,194.09,1323.75,196.2Zm-14.74.91L1281.79,224l6,6.69.71-.16v-3.22h3.57l-2.51-3.32c3.7,1.11,3.7,1.11,4.53.22l-2-2.68.64-.56,2.78,2.1.88-.4-1.56-3.93.38-.33,3.38,2.64V217.6l3.55-.28-2.65-3.22.55-.63,3,2.07.84-.37-1.6-3.93.39-.32,2.84,2.2c2.84-1.93-1.63-2.75-.42-4.66l3.41,2.58v-3.4l2.79-.18c-.44-.83-.91-1.65-1.29-2.5a7.62,7.62,0,0,1-.2-1.73l3.24,2.45.84-.43-1.88-4.68c1.09.77,1.55,1.07,2,1.41s.94.84,1.48,1.32l1.27-1.42c-.48-.52-.91-.92-1.25-1.38s-.61-1-1.07-1.76c4.54,1.42,4.54,1.42,4.21-1l2.95-.48-5.86-6.77-3.09,2.55-.77-.2c2.11-2.48.26-3.43-1.23-4.38-8.08-5.11-16.43-5.44-24.52-.37s-11.3,12.69-10.19,22a19.11,19.11,0,0,0,5.48,11.57l5.32-4.64C1281,209,1282,200,1289,194.81,1295.29,190.17,1304.48,191.08,1309,197.11Zm-2.31-.56a13.45,13.45,0,0,0-19.19,1.65c-4.41,5.22-4.2,13.4.36,17.34Z" transform="translate(-57.4 -20.74)" fill="#b2edf5"/>
    <path d="M1170.56,817.57l1.12,59.39-50,.95,47.95-60.75ZM1125,876.4l45.81-.87-2.49-3.7,2.36-2.06L1166,868.5l4.18-1.72L1170,866l-4.12-1,5.08-2.18-4.47-1.29.08-.74,3.93-1.24-2.52-1.9,2.25-2.47-4.65-1,5.18-2.25-4.46-1.22.08-.75,4.33-1.41-5.32-2,4.81-1.19-2.59-2.23,2.51-2.23-4-1,.06-.74,4.25-1.5L1166,836l.14-.68,3.27-.86.13-.76-4.2-1.67,4.8-1.45-3-2.09c3.44-1.95,1.75-4.61,1.78-7.83Z" transform="translate(-57.4 -20.74)" fill="#b2edf5"/>
    <path d="M1142,866.28l18.48-23.37a20.14,20.14,0,0,1,.71,3c.16,6,.2,12,.41,18.05.07,2.15-.58,3.05-2.87,3-5.41,0-10.81.16-16.22.26ZM1159.33,847,1145,865.21l14.66-.28Z" transform="translate(-57.4 -20.74)" fill="#b2edf5"/>
    <path d="M543.32,50.29c7.59,0,15.18,0,22.77,0a7.84,7.84,0,0,1,2.15.66,8,8,0,0,1-1,1.85q-15.26,15.34-30.58,30.62C531.35,88.71,526.1,94,520.79,99.21a7.8,7.8,0,0,1-2.23,1.07,9.19,9.19,0,0,1-.49-2.07c0-15.11,0-30.22-.07-45.33,0-1.63.54-2.2,2.17-2.19,7.71.06,15.43,0,23.14,0Zm-12.58,36c-1.23-1.18-2.46-2.23-3.52-3.43-.35-.39-.3-1.14-.43-1.73.59.1,1.36,0,1.75.35,1.26,1.09,2.39,2.34,3.69,3.65l4.28-4.53A14,14,0,0,1,534.35,79c-.32-.36-.26-1.05-.37-1.6.6.08,1.37-.05,1.74.28a9.55,9.55,0,0,1,1.41,2l4.9-4.56c-1.34-1.14-2.63-2.13-3.77-3.29-.36-.37-.29-1.16-.42-1.75.6.12,1.39,0,1.77.39,1.19,1.1,2.22,2.36,3.22,3.45l4.61-4.3a10.8,10.8,0,0,1-2-1.63c-.33-.44-.27-1.17-.38-1.77.6.14,1.35.11,1.77.46a9.54,9.54,0,0,1,1.43,1.94l4.55-4.4c-1.23-1.17-2.44-2.18-3.46-3.36-.37-.43-.3-1.24-.43-1.88.6.15,1.37.12,1.76.5,1.16,1.11,2.17,2.37,3.21,3.56l4.73-4.54a13.75,13.75,0,0,1-2.24-1.63c-.32-.35-.26-1.06-.37-1.61.6.09,1.37,0,1.75.31a9.35,9.35,0,0,1,1.4,2l4.94-4.85h-44V97l5.29-5a14.19,14.19,0,0,1-2.1-1.94c-.31-.43-.21-1.15-.29-1.74.55.11,1.23,0,1.62.35,2.41,1.88,2.39,1.92,4.43-.33C529.61,87.71,530.1,87.07,530.74,86.3Z" transform="translate(-57.4 -20.74)" fill="#b2edf5"/>
    <path d="M1734.39,170.92c-.6-.5-1.09-.85-1.51-1.27-2.94-2.93-5.82-5.93-8.83-8.79-1.43-1.35-1.19-2.33.08-3.56,4-3.88,8-7.77,11.94-11.72q11.54-11.57,23-23.2c1.93-1.94,2-1.94,3.86-.08,2.89,2.89,5.73,5.83,8.68,8.66,1.16,1.11,1.17,1.87,0,3q-8.84,8.63-17.57,17.37c-6.05,6.05-12,12.17-18.07,18.24C1735.52,170,1735,170.42,1734.39,170.92Zm-1.17-18.53-4.13,3c1.14,1.27,2,2.13,2.75,3.11.25.33.11,1,.14,1.45-.54-.06-1.21.06-1.58-.23-1-.77-1.87-1.71-2.9-2.69l-2.05,2.19,8.8,8.76,35.51-35.55-8.84-8.76-2.22,2.32a12.18,12.18,0,0,1,2.21,1.89,8.61,8.61,0,0,1,.8,2.34,7.57,7.57,0,0,1-2.32-.95,10.56,10.56,0,0,1-1.57-2.36l-.38.84-3.77,3.14c1.73,1.58,3.34,2.94,4.79,4.45.39.4.29,1.26.42,1.91-.65-.15-1.5-.08-1.91-.47-1.52-1.46-2.89-3.07-4.11-4.4l-4.28,3.43a27.68,27.68,0,0,1,3,2.52c.33.38.21,1.15.3,1.75-.6-.08-1.36,0-1.76-.28a30.69,30.69,0,0,1-2.73-2.8l-3.78,4.16c1.72,1.43,3.34,2.69,4.83,4.09.38.35.35,1.13.51,1.72a4.6,4.6,0,0,1-1.71-.35,20.77,20.77,0,0,1-2.44-2.15c-2.74-2.61-2.79-2.61-5.16.45a10,10,0,0,0-.52.87,20.22,20.22,0,0,1,2.36,2.24c.36.46.31,1.23.44,1.87a4.82,4.82,0,0,1-1.87-.36,24.48,24.48,0,0,1-2.57-2.38l-3.58,3.38c1.62,1.53,3.08,2.76,4.34,4.17a7.46,7.46,0,0,1,.94,2.33,6.45,6.45,0,0,1-2.34-.82C1735.36,154.95,1734.17,153.45,1733.22,152.39Z" transform="translate(-57.4 -20.74)" fill="#b2edf5"/>
    <path d="M535.93,58.94c2.19,0,4.39,0,6.58,0,.5,0,1.38.31,1.4.56a2.21,2.21,0,0,1-.56,1.6q-6.53,6.63-13.15,13.16a1.75,1.75,0,0,1-1.42.53c-.35-.14-.62-.88-.64-1.37-.16-4.26-.24-8.52-.4-12.78,0-1.33.54-1.77,1.8-1.74C531.67,59,533.8,58.93,535.93,58.94ZM530,61v9.84L540,61Z" transform="translate(-57.4 -20.74)" fill="#b2edf5"/>
    <path d="M515.51,452.62c.22-.75.34-1.34.56-1.89,1.51-3.87,3.11-7.7,4.53-11.6.67-1.85,1.67-2,3.29-1.35C529,439.9,534.21,442,539.4,444c10.14,4,20.31,7.89,30.46,11.83,2.55,1,2.58,1.05,1.62,3.51-1.49,3.8-3.06,7.58-4.47,11.41-.56,1.51-1.25,1.82-2.74,1.21q-11.44-4.66-22.94-9.17c-8-3.13-16-6.18-23.94-9.28C516.77,453.32,516.2,453,515.51,452.62ZM532,444.15l-4.39-2.6c-.7,1.55-1.14,2.7-1.75,3.76-.21.36-.83.48-1.27.71-.16-.52-.54-1.09-.42-1.54.31-1.22.82-2.4,1.3-3.73l-2.83-1-4.52,11.57,46.78,18.35,4.5-11.61-3-1.11a12.18,12.18,0,0,1-.86,2.78,8.61,8.61,0,0,1-1.83,1.67,7.57,7.57,0,0,1-.06-2.51,10.56,10.56,0,0,1,1.53-2.38h-.92l-4.39-2.2c-.76,2.22-1.36,4.24-2.17,6.17-.21.51-1,.77-1.59,1.15-.13-.65-.52-1.41-.33-1.94.73-2,1.66-3.88,2.39-5.52l-4.86-2.55a27.68,27.68,0,0,1-1.13,3.71c-.21.46-1,.66-1.48,1-.16-.58-.58-1.23-.44-1.73a30.69,30.69,0,0,1,1.47-3.62l-5.32-1.81c-.63,2.15-1.14,4.13-1.82,6.06-.17.48-.9.77-1.37,1.15a4.6,4.6,0,0,1-.36-1.71,20.77,20.77,0,0,1,1-3.1c1.3-3.55,1.28-3.6-2.48-4.55a10,10,0,0,0-1-.13,20.22,20.22,0,0,1-1.11,3.06c-.28.51-1,.77-1.54,1.15a4.82,4.82,0,0,1-.42-1.86,24.48,24.48,0,0,1,1.15-3.31L534,444c-.76,2.1-1.3,3.93-2.09,5.65-.33.72-1.16,1.2-1.76,1.8a6.45,6.45,0,0,1-.19-2.47C530.54,447.14,531.44,445.45,532,444.15Z" transform="translate(-57.4 -20.74)" fill="#b2edf5"/>
    <path d="M1723.32,832.29c7.59,0,15.18,0,22.77,0a7.84,7.84,0,0,1,2.15.66,8,8,0,0,1-1,1.85q-15.26,15.34-30.58,30.62c-5.26,5.26-10.51,10.55-15.82,15.77a7.8,7.8,0,0,1-2.23,1.07,9.19,9.19,0,0,1-.49-2.07c0-15.11,0-30.22-.07-45.33,0-1.63.54-2.2,2.17-2.19,7.71.06,15.43,0,23.14,0Zm-12.58,36c-1.23-1.18-2.46-2.23-3.52-3.43-.35-.39-.3-1.14-.43-1.73.59.1,1.36,0,1.75.35,1.26,1.09,2.39,2.34,3.69,3.65l4.28-4.53a14,14,0,0,1-2.15-1.66c-.32-.36-.26-1.05-.37-1.6.6.08,1.37-.05,1.74.28a9.55,9.55,0,0,1,1.41,2l4.9-4.56c-1.34-1.14-2.63-2.13-3.77-3.29-.36-.37-.29-1.16-.42-1.75.6.12,1.39,0,1.77.39,1.19,1.1,2.22,2.36,3.22,3.45l4.61-4.3a10.8,10.8,0,0,1-2-1.63c-.33-.44-.27-1.17-.38-1.77.6.14,1.35.11,1.77.46a9.54,9.54,0,0,1,1.43,1.94l4.55-4.4c-1.23-1.17-2.44-2.18-3.46-3.36-.37-.43-.3-1.24-.43-1.88.6.15,1.37.12,1.76.5,1.16,1.11,2.17,2.37,3.21,3.56l4.73-4.54a13.75,13.75,0,0,1-2.24-1.63c-.32-.35-.26-1.06-.37-1.61.6.09,1.37,0,1.75.31a9.35,9.35,0,0,1,1.4,2l4.94-4.85h-44V879l5.29-5a14.19,14.19,0,0,1-2.1-1.94c-.31-.43-.21-1.15-.29-1.74.55.11,1.23,0,1.62.35,2.41,1.88,2.39,1.92,4.43-.33C1709.61,869.71,1710.1,869.07,1710.74,868.3Z" transform="translate(-57.4 -20.74)" fill="#b2edf5"/>
    <path d="M1715.93,840.94c2.19,0,4.39,0,6.58,0,.5,0,1.38.31,1.4.56a2.21,2.21,0,0,1-.56,1.6q-6.53,6.63-13.15,13.16a1.75,1.75,0,0,1-1.42.53c-.35-.14-.62-.88-.64-1.37-.16-4.26-.24-8.52-.4-12.78,0-1.33.54-1.77,1.8-1.74C1711.67,841,1713.8,840.93,1715.93,840.94ZM1710,843v9.84l10-9.84Z" transform="translate(-57.4 -20.74)" fill="#b2edf5"/>
    <path d="M131.75,494.2,95,531.14c-2-2.32-4.82-4.45-6.13-7.28-3.65-7.87-8.73-15.38-5.93-25,4.63-16,23.26-22.88,36.81-13.31,1.14.8,2,2.45,3.92,1.36.19-.11.82.38,1.15.7C127.2,489.81,129.55,492.09,131.75,494.2Zm-14.74.91L89.79,522l6,6.69.71-.16v-3.22h3.57L97.56,522c3.7,1.11,3.7,1.11,4.53.22l-2-2.68.64-.56,2.78,2.1.88-.4-1.56-3.93.38-.33,3.38,2.64V515.6l3.55-.28-2.65-3.22.55-.63,3,2.07.84-.37-1.6-3.93.39-.32,2.84,2.2c2.84-1.93-1.63-2.75-.42-4.66l3.41,2.58v-3.4l2.79-.18c-.44-.83-.91-1.65-1.29-2.5a7.62,7.62,0,0,1-.2-1.73l3.24,2.45.84-.43L120,498.55c1.09.77,1.55,1.07,2,1.41s.94.84,1.48,1.32l1.27-1.42c-.48-.52-.91-.92-1.25-1.38s-.61-1-1.07-1.76c4.54,1.42,4.54,1.42,4.21-1l2.95-.48-5.86-6.77-3.09,2.55-.77-.2c2.11-2.48.26-3.43-1.23-4.38-8.08-5.11-16.43-5.44-24.52-.37s-11.3,12.69-10.19,22a19.11,19.11,0,0,0,5.48,11.57l5.32-4.64C89,507,90,498,97,492.81,103.29,488.17,112.48,489.08,117,495.11Zm-2.31-.56a13.45,13.45,0,0,0-19.19,1.65c-4.41,5.22-4.2,13.4.36,17.34Z" transform="translate(-57.4 -20.74)" fill="#b2edf5"/>
  </g>
  <g>
    <path d="M1170.51,55.82a7.31,7.31,0,0,1,2.24,4.27c2.75,14.55,5.31,29.14,8.4,43.62,1.08,5.06.17,9.71-.72,14.51-.2,1-.38,2.09-.64,3.12-.08.33-.34.78-.61.84a1.12,1.12,0,0,1-.94-.44,108.72,108.72,0,0,1-6.45-10.6c-1.09-2.27-1.17-5-1.66-7.6q-4-20.9-7.94-41.8c-.68-3.6,1.56-6.59,5-6.62A15.35,15.35,0,0,1,1170.51,55.82Zm9.72,53.14-7-36.93-2.82.41,7.12,36.8Zm-7,1.2,2.4-.49L1168.69,73l-2.49.32Zm-1-44.45c-.41-2.16-.72-4.3-1.23-6.39a3.71,3.71,0,0,0-4.24-2.66,3.59,3.59,0,0,0-3.13,3.74c.28,2.26.9,4.48,1.32,6.49Zm.45,2-7.35,1.36.32,2.3,7.26-1.27Zm1.13,43.76c1.07,3.17,1.71,3.76,3.43,3.44,2.83-.54,3.1-.93,2.91-4.55Zm4.55,7.6h.37l.7-3.25-2.8.55Z" transform="translate(-57.4 -20.74)" fill="#fcb9d4"/>
    <path d="M332.79,754.24l-1.71.82c.3.76.57,1.5.87,2.23q2.24,5.33,4.48,10.65a3.31,3.31,0,0,1,.35,1c0,.26-.17.72-.33.75a1.08,1.08,0,0,1-.89-.27,4.7,4.7,0,0,1-.57-1.21c-2.43-5.78-4.83-11.57-7.32-17.33-.51-1.19-.38-1.83.9-2.2.94-.27,1.86-.63,3.32-1.14-.81-1.58-1.56-2.84-2.13-4.18-.84-2-.19-3.68,1.53-4.37s3.34.09,4.18,2.06c.54,1.27,1,2.58,1.55,3.94a4.48,4.48,0,0,1,1.14-.29A4.14,4.14,0,0,1,340,745c1.29.73,2.08,4,1.46,5.4a1.53,1.53,0,0,0,0,1.1q3,7.14,6,14.24c.15.36.57.61.87.91.67.67,1.62,1.21,2,2q4,9.24,7.81,18.58a7,7,0,0,1,0,2.82,14.11,14.11,0,0,0-.22,1.67c.22,3.22.5,6.43.71,9.64a6,6,0,0,1-.33,1.58,5.36,5.36,0,0,1-1.37-.81c-1.78-2-3.48-4-5.24-5.95-.93-1.05-1.72-2.22-3.21-2.7a3.05,3.05,0,0,1-1.42-1.67q-4-9.26-7.81-18.58a3.22,3.22,0,0,1-.18-2.19,3.13,3.13,0,0,0-.19-2.66C336.78,763.75,334.83,759.09,332.79,754.24Zm24.18,35a5.12,5.12,0,0,0-.15-1.36q-3.93-9.42-7.92-18.83a1.55,1.55,0,0,0-2.3-.9c-1.73.73-3.46,1.47-5.2,2.19a1.58,1.58,0,0,0-1,2.36q3.93,9.35,7.87,18.7a1.58,1.58,0,0,0,2.31.91c1.78-.74,3.56-1.48,5.32-2.26A5.74,5.74,0,0,0,357,789.22Zm-22.46-35.38,6.19,14.94,5.25-2.11-6.3-15.06Zm-4-.15c3.12-1.32,6.17-2.59,9.18-3.94a1.37,1.37,0,0,0,.51-1.21c-.79-2.84-.83-2.84-3.48-1.74-.82.34-1.64.71-2.47,1l-5.29,2.1Zm25.8,37.88-5,2.13,5.42,6.19.26-.13Zm-20.5-46c-.66-1.53-1.25-3-1.94-4.43a1.5,1.5,0,0,0-2-.75,1.47,1.47,0,0,0-1,1.94c.53,1.54,1.19,3,1.78,4.49Z" transform="translate(-57.4 -20.74)" fill="#fcb9d4"/>
    <path d="M1018.14,994.43a3.5,3.5,0,0,0-3.7,1L1000.87,1009c-.21.21-.38.49-.64.6a9.59,9.59,0,0,1-1.36.39c.1-.5,0-1.16.32-1.47,3.26-3.34,6.57-6.63,9.87-9.93,1.46-1.46,2.9-2.94,4.39-4.36a5.21,5.21,0,0,1,7.52.08l3.85,3.86c1.31,1.32,1.32,1.4,0,2.7q-8.65,8.66-17.31,17.3-7.52,7.49-15.07,14.94a11.1,11.1,0,0,0-1.07,1.22c-3.44,4.6-8.82,6-13.68,8.26a1,1,0,0,1-.93-.07,1.21,1.21,0,0,1-.18-1,102.09,102.09,0,0,1,4.32-9.52c.93-1.65,2.64-2.87,4-4.26l31.89-31.89C1017.24,995.4,1017.6,995,1018.14,994.43Zm-12.65,23.19,18.15-18.15-3.84-3.92-18.16,18.09Zm-18.42,18.72,17.24-17.23-4.08-4.17L983,1032.14Zm-5.3-2.69-3,6.75,6.66-3Z" transform="translate(-57.4 -20.74)" fill="#fcb9d4"/>
    <path d="M101.39,63.75c1.67,2.3,1.67,2.3-.21,4.18Q90,79.15,78.76,90.36a87.09,87.09,0,0,1-7.33,7c-1.74,1.37-4,2.11-6.05,3s-4.22,1.72-6.35,2.51c-.44.16-1.28.23-1.41,0a2,2,0,0,1-.1-1.56c1.49-3.86,3-7.7,4.61-11.51A6.62,6.62,0,0,1,63.68,88Q78.1,73.54,92.55,59.11c1.79-1.79,1.8-1.79,4.09-.08,1.43-1.52,2.87-3.13,4.39-4.65,1.69-1.69,3.77-1.78,5.28-.3s1.41,3.57-.29,5.27C104.49,60.86,102.9,62.31,101.39,63.75Zm-.92,2.33-5.78-5.92L64.49,90.27l5.87,5.67ZM59.85,100.22l.36.32,8.35-3.43-5-5.82ZM100.3,62.63l4.53-4.73a1.6,1.6,0,0,0,.14-2.47,1.63,1.63,0,0,0-2.49.12c-1.62,1.51-3.22,3-5,4.74Z" transform="translate(-57.4 -20.74)" fill="#fcb9d4"/>
    <path d="M752.47,426.26a53.69,53.69,0,0,1,5.8,2.55c1.65,1,1.57,1.5.2,2.88l-22.18,22.19c-3.58,3.58-7.14,7.17-10.73,10.73a18.4,18.4,0,0,1-11.07,5.49c-2,.23-2.41-.13-2.08-2.13a19.3,19.3,0,0,1,5.2-10.71q13.57-13.68,27.22-27.29a10.24,10.24,0,0,1,7.45-3.25Zm-13.59,21.87,18.05-17.92c-2.74-2.48-7.35-2.28-10.36.66-4,3.93-8,7.94-11.93,11.92a4.68,4.68,0,0,0-.46.65Zm-1.32,2.06-5.1-5.27c-4,4-8.14,8.14-12.19,12.28a1.41,1.41,0,0,0-.05,1.38c1.41,1.46,2.93,2.82,4.45,4.25.29-.24.52-.39.71-.59Zm-23.32,18.12c3.59-.56,6.57-1.6,9-4.15l-5.16-5C716,461.83,714.39,464.58,714.24,468.31Z" transform="translate(-57.4 -20.74)" fill="#fcb9d4"/>
    <path d="M964.67,759.83c4.84.58,9.68,1.11,14.5,1.79a8.37,8.37,0,0,1,3.64,1.31,5.89,5.89,0,0,1,2.32,3c.35,1.56-1.14,2.5-2.46,2.82-3.4.85-6.85,1.48-10.29,2.17-4,.79-7.93,1.45-11.85,2.36a10.61,10.61,0,0,0-3.81,1.88c-1.75,1.31-1.83,3.27,0,4.36a34.5,34.5,0,0,0,7.78,3.47c9.41,2.73,19.12,3.82,28.85,4.74,2.2.21,4.41.3,6.6.6.52.07,1,.74,1.45,1.13-.51.29-1,.86-1.53.82-12.73-.93-25.45-2-37.71-5.86a26,26,0,0,1-5.66-2.6c-4.36-2.67-4.35-7.1.31-9.14,3.7-1.62,7.8-2.38,11.78-3.25s8.08-1.36,12.1-2.15a8.1,8.1,0,0,0,2.35-1.43c-.78-.6-1.5-1.56-2.36-1.72A114.93,114.93,0,0,0,969,762.47c-3.82-.29-7.68-.06-11.51-.18-.68,0-1.34-.62-2-.95.66-.35,1.3-1,2-1,2.4-.12,4.81,0,7.22,0Z" transform="translate(-57.4 -20.74)" fill="#fcb9d4"/>
    <path d="M973.24,732.5a9.75,9.75,0,0,0-1.5,1c-2.4,2.28-4.74,4.64-7.18,6.88-.46.42-1.29.44-1.95.64.19-.71.15-1.63.6-2.09,2.44-2.52,5-4.92,7.51-7.37,1.25-1.22,2.49-1.81,4.09-.46a2.75,2.75,0,0,0,1.77.21,3.6,3.6,0,0,1,3.89,2,3.34,3.34,0,0,1-.68,4.12c-6.94,6.75-13.78,13.62-20.93,20.13-1.7,1.55-4.44,2-6.76,2.81-1,.33-1.52-.49-1.14-1.4,1.13-2.72,1.72-5.64,4.08-7.83,5.85-5.44,11.52-11.08,17.26-16.64.45-.44.87-.92,1.3-1.38Zm-19.69,24.31.71.82a22.16,22.16,0,0,0,4.21-2.47c4.43-4.11,8.71-8.38,13-12.59l6.44-6.24c.77-.75,1.36-1.75.29-2.44-.57-.37-1.7,0-2.54.21-.32.07-.57.51-.85.78-5.92,5.75-11.88,11.46-17.74,17.27A42,42,0,0,0,953.55,756.82Z" transform="translate(-57.4 -20.74)" fill="#fcb9d4"/>
    <path d="M752.68,420.17a14.67,14.67,0,0,1,10.21,4.45c.53.53,1.48,1.09.56,1.89-.25.22-1.34-.19-1.78-.59-4.79-4.41-11-5.24-16.31-1.94a24.26,24.26,0,0,0-4,3.44c-3.41,3.35-6.76,6.75-10.14,10.13a3.75,3.75,0,0,1-1,.88,1.15,1.15,0,0,1-1-.13c-.19-.21-.09-.71-.08-1.08,0-.09.12-.19.2-.27,4.79-4.69,9.47-9.51,14.43-14C746,420.81,749.16,420.19,752.68,420.17Z" transform="translate(-57.4 -20.74)" fill="#fcb9d4"/>
    <path d="M1108.3,623c-3,3-6,5.89-8.74,8.88a11.42,11.42,0,0,1-5.71,3.5c-2.1.53-4.14,1.27-6.2,1.93-1.14.37-1.45-.25-1.18-1.13,1-3,2-6,3.06-9a5.21,5.21,0,0,1,1.39-1.7c3.32-3.21,6.66-6.39,10.41-10-1.68-1.49-3-2.58-4.26-3.79-3.71-3.65-7.35-7.38-11.08-11-1-1-1-1.61,0-2.59q4.14-4,8.11-8.11c1-1,1.64-1.12,2.7,0,4.46,4.56,9,9,13.51,13.54.37.37.76.71,1.34,1.25l10-10.16c1.08-1.1,2.16-2.2,3.27-3.27a5.36,5.36,0,1,1,7.59,7.57q-5.76,5.85-11.62,11.61a24.9,24.9,0,0,1-2.22,1.71c2,1.82,3.58,3.26,5.12,4.78,3.59,3.55,7.11,7.17,10.74,10.68,1,1,1,1.63,0,2.58-2.75,2.66-5.47,5.35-8.11,8.12-1,1.07-1.69,1-2.71,0-4.62-4.7-9.29-9.34-14-14C1109.32,624,1108.89,623.56,1108.3,623Zm24.66,6.06-15.09-15.16-8.07,8,2.54,2.57c1.09-1.21,2.06-2.4,3.17-3.45.34-.33,1.05-.27,1.59-.38-.13.51-.11,1.17-.43,1.49-1.11,1.11-2.34,2.1-3.23,2.87l3.3,3.92c1.14-1.26,2.12-2.45,3.22-3.52.32-.32,1-.3,1.47-.43-.11.54,0,1.23-.36,1.6-1,1.19-2.17,2.25-3.08,3.17l3.19,3.5c1-1.13,1.95-2.24,3-3.2a4.75,4.75,0,0,1,1.7-.6c-.16.58-.15,1.31-.52,1.7-1,1.08-2.17,2-3.23,3l2.77,3Zm-38.33-22.36c1.07-1.16,2.06-2.34,3.18-3.39.34-.32,1.05-.25,1.6-.35-.13.5-.12,1.12-.43,1.46-1,1.18-2.18,2.27-3,3.15l2.93,3.6c1.21-1.26,2.19-2.39,3.29-3.38.38-.34,1.07-.33,1.62-.48-.13.54-.09,1.25-.43,1.59-1.07,1.09-2.27,2-3.42,3l.4.32,1.47,1.82,8.06-8-14.53-14.63-8,8,2.89,3.06c1.1-1.25,2.07-2.45,3.17-3.52.34-.33,1.05-.29,1.59-.42-.15.54-.15,1.25-.49,1.59-1.08,1.07-2.3,2-3.46,3Zm31.91-4.59-1.47-1.74-30.26,30.26,1.71,1.53Zm-3.19-3.22-1.52-1.67-30.18,30.15,1.51,1.73Zm4.89,2.2c.84-1,1.6-1.85,2.37-2.72.32-.36.69-.67,1-1a3.63,3.63,0,0,0-.12-4.92,3.54,3.54,0,0,0-4.89-.34c-1.32,1.12-2.48,2.42-3.75,3.69Zm-33.33,32.11-4.28-4.55-2.16,6.7Z" transform="translate(-57.4 -20.74)" fill="#fcb9d4"/>
    <path d="M89.3,74.84c-2.93-.06-4.78-3.17-3.19-5.31a29.3,29.3,0,0,1,5-5.08c1.29-1,2.89-.76,4.19.35s1.72,2.94.75,4.12a62.38,62.38,0,0,1-5.39,5.46C90.32,74.74,89.62,74.75,89.3,74.84Zm5.48-7.49c-.35-.49-.6-1.2-1-1.33a2.34,2.34,0,0,0-1.9.22,27.44,27.44,0,0,0-3.81,3.83c-.4.5-.15,1.53-.19,2.31.83,0,1.92.32,2.45-.08a32.36,32.36,0,0,0,3.74-3.66A6.52,6.52,0,0,0,94.78,67.36Z" transform="translate(-57.4 -20.74)" fill="#fcb9d4"/>
    <path d="M1795.65,589.45c-4,14.35-9.51,28.06-15.22,41.69a47.5,47.5,0,0,1-8.17,13.54c-.5.56-.59,1.45-1,2.12a.78.78,0,0,1-1.48-.5c.34-3.21.59-6.44,1.17-9.61a77,77,0,0,1,2.26-8.83,331.34,331.34,0,0,1,14-38.18,56.42,56.42,0,0,1,3.27-5.74,5.38,5.38,0,0,1,1.27-1.39c1.88-1.49,3.79-.79,4.15,1.58a25.24,25.24,0,0,1,.07,3.37l.88.51a4.65,4.65,0,0,1,2.27,6q-3.32,9.19-6.76,18.34c-.17.45-.82.72-1.24,1.07-.1-.54-.43-1.16-.27-1.6,2.16-6,4.41-12,6.6-18.07C1798.24,591.63,1797.67,590.29,1795.65,589.45Zm-8.28,20.77c2.22-7.3,4.44-14.47,6.56-21.67a14.8,14.8,0,0,0,.34-3.75c0-.41-.32-.82-.5-1.24a3.52,3.52,0,0,0-1.2.55,13.5,13.5,0,0,0-1.81,2.37c-3.9,6.84-6.36,14.28-9.16,21.65Zm-8.62,5.8-5.83,18.39,3.71,1.31,7.45-17.72Zm.7-1.85,5.26,2.15,1.48-4.31-5.13-2.1Zm-7.3,27.51.33.12,3.2-4.53-3-1Z" transform="translate(-57.4 -20.74)" fill="#fcb9d4"/>
    <path d="M852.11,314c-1.42-5.39-2.69-10.48-4.13-15.52-.86-3,.19-5.91.44-8.85.08-.91,1-1,1.46-.3,1.84,2.62,4.21,4.88,4.95,8.25a120.54,120.54,0,0,0,3.81,13.32l4.21-18c-1.08-.71-1.35-.15-1.54.69-.69,3.06-1.42,6.12-2.13,9.18a2.76,2.76,0,0,1-.29,1,4.05,4.05,0,0,1-1,.7c-.18-.37-.54-.76-.51-1.11a18,18,0,0,1,.52-2.41c.63-2.71,1.26-5.42,1.88-8.13.32-1.4,1-2.15,2.62-2a2.39,2.39,0,0,0,1.55-.63,3.5,3.5,0,0,1,4-.59,3.12,3.12,0,0,1,1.5,3.7c-1.4,6.13-2.83,12.24-4.25,18.36-.16.69-.3,1.38-.5,2.28a26.71,26.71,0,0,0,3.7-.06c.39-.06.86-.76,1-1.25,1.57-6.4,3.09-12.82,4.62-19.23.47-2,.53-2,2.48-1.54,1.15.28,2.29.61,3.46.81s1.34,1,1.08,2c-1.38,5.71-2.73,11.42-4.09,17.13-.14.6-.28,1.19-.42,1.82.16.1.27.23.4.24,2.58.29,2.48.29,2.46,3-.06,6.38,0,12.76,0,19.13,0,.87.32,1.18,1.18,1.15a46.11,46.11,0,0,1,4.63,0,5,5,0,0,1,1.6.75c-.51.28-1,.79-1.55.8-2.83.08-5.67,0-8.5,0H842.11a4.26,4.26,0,0,1-1.38,0,4,4,0,0,1-1-.85c.34-.24.67-.69,1-.7,2-.07,4.1,0,6.4,0,0-.8,0-1.45,0-2.09,0-6.39,0-12.78,0-19.17,0-1.45.38-2.11,1.91-2C849.94,314.06,850.91,314,852.11,314Zm-3.26,1.64v21.43h28.83V315.63Zm10.76-1.53a13.41,13.41,0,0,0,2.47,0,1.61,1.61,0,0,0,1.09-.9c1.59-6.59,3.11-13.2,4.65-19.8.24-1,.27-2-1-2.39s-1.94.38-2.21,1.55C863,299.6,861.32,306.7,859.6,314.09Zm13-7.65,2,1.86-2.62.75L870.85,314a13,13,0,0,1,1.89,0c1.6.27,2.21-.42,2.54-2,.87-4.18,1.94-8.31,2.92-12.46.41-1.73.79-3.46,1.21-5.27l-3.7-.84-.29,1.41,2,1.81-2.62.8c-.18.71-.51,1.78-.68,2.88,0,.3.35.7.61,1s.84.81,1.26,1.22c-.57.12-1.15.26-1.72.36a3.37,3.37,0,0,1-.74-.07Zm-23.18-9.34a7.82,7.82,0,0,0,.1.8c1.34,5.13,2.67,10.25,4,15.37a1.29,1.29,0,0,0,.9.78,23.52,23.52,0,0,0,2.89-.18l-4.68-17.63Zm.59-4.86-.38.11-.32,3,2.51-.65Z" transform="translate(-57.4 -20.74)" fill="#fcb9d4"/>
    <path d="M863.16,322c3.44-.05,6.18.84,8.27,3.29a4.6,4.6,0,0,1-.3,6.41c-3.91,3.85-11.93,3.82-15.81-.07a4.83,4.83,0,0,1,.65-7.4A10.08,10.08,0,0,1,863.16,322Zm.1,11.19a27.5,27.5,0,0,0,5.21-1.56c3.24-1.69,3.38-5,.31-6.74a11,11,0,0,0-10.76-.18,3.7,3.7,0,0,0,.23,7.06A37,37,0,0,0,863.26,333.19Z" transform="translate(-57.4 -20.74)" fill="#fcb9d4"/>
    <path d="M513.3,993c-3,3-6,5.89-8.74,8.88a11.42,11.42,0,0,1-5.71,3.5c-2.1.53-4.14,1.27-6.2,1.93-1.14.37-1.45-.25-1.18-1.13,1-3,2-6,3.06-9a5.21,5.21,0,0,1,1.39-1.7c3.32-3.21,6.66-6.39,10.41-10-1.68-1.49-3-2.58-4.26-3.79-3.71-3.65-7.35-7.38-11.08-11-1-1-1-1.61,0-2.59q4.14-4,8.11-8.11c1-1,1.64-1.12,2.7,0,4.46,4.56,9,9,13.51,13.54.37.37.76.71,1.34,1.25l10-10.16c1.08-1.1,2.16-2.2,3.27-3.27a5.36,5.36,0,1,1,7.59,7.57q-5.76,5.85-11.62,11.61a24.9,24.9,0,0,1-2.22,1.71c2,1.82,3.58,3.26,5.12,4.78,3.59,3.55,7.11,7.17,10.74,10.68,1,1,1,1.63,0,2.58-2.75,2.66-5.47,5.35-8.11,8.12-1,1.07-1.69,1-2.71,0-4.62-4.7-9.29-9.34-14-14C514.32,994,513.89,993.56,513.3,993ZM538,999.06,522.87,983.9l-8.07,8,2.54,2.57c1.09-1.21,2.06-2.4,3.17-3.45.34-.33,1.05-.27,1.59-.38-.13.51-.11,1.17-.43,1.49-1.11,1.11-2.34,2.1-3.23,2.87l3.3,3.92c1.14-1.26,2.12-2.45,3.22-3.52.32-.32,1-.3,1.47-.43-.11.54,0,1.23-.36,1.6-1,1.19-2.17,2.25-3.08,3.17l3.19,3.5c1-1.13,1.95-2.24,3-3.2a4.75,4.75,0,0,1,1.7-.6c-.16.58-.15,1.31-.52,1.7-1,1.08-2.17,2-3.23,3l2.77,3ZM499.63,976.7c1.07-1.16,2.06-2.34,3.18-3.39.34-.32,1.05-.25,1.6-.35-.13.5-.12,1.12-.43,1.46-1,1.18-2.18,2.27-3,3.15l2.93,3.6c1.21-1.26,2.19-2.39,3.29-3.38.38-.34,1.07-.33,1.62-.48-.13.54-.09,1.25-.43,1.59-1.07,1.09-2.27,2-3.42,3l.4.32,1.47,1.82,8.06-8-14.53-14.63-8,8,2.89,3.06c1.1-1.25,2.07-2.45,3.17-3.52.34-.33,1.05-.29,1.59-.42-.15.54-.15,1.25-.49,1.59-1.08,1.07-2.3,2-3.46,3Zm31.91-4.59-1.47-1.74-30.26,30.26,1.71,1.53Zm-3.19-3.22-1.52-1.67-30.18,30.15,1.51,1.73Zm4.89,2.2c.84-1,1.6-1.85,2.37-2.72.32-.36.69-.67,1-1a3.63,3.63,0,0,0-.12-4.92,3.54,3.54,0,0,0-4.89-.34c-1.32,1.12-2.48,2.42-3.75,3.69Zm-33.33,32.11-4.28-4.55-2.16,6.7Z" transform="translate(-57.4 -20.74)" fill="#fcb9d4"/>
    <path d="M1623.11,624c-1.42-5.39-2.69-10.48-4.13-15.52-.86-3,.19-5.91.44-8.85.08-.91,1-1,1.46-.3,1.84,2.62,4.21,4.88,4.95,8.25a120.54,120.54,0,0,0,3.81,13.32l4.21-18c-1.08-.71-1.35-.15-1.54.69-.69,3.06-1.42,6.12-2.13,9.18a2.76,2.76,0,0,1-.29,1,4.05,4.05,0,0,1-1,.7c-.18-.37-.54-.76-.51-1.11a18,18,0,0,1,.52-2.41c.63-2.71,1.26-5.42,1.88-8.13.32-1.4,1-2.15,2.62-2a2.39,2.39,0,0,0,1.55-.63,3.5,3.5,0,0,1,4-.59,3.12,3.12,0,0,1,1.5,3.7c-1.4,6.13-2.83,12.24-4.25,18.36-.16.69-.3,1.38-.5,2.28a26.71,26.71,0,0,0,3.7-.06c.39-.06.86-.76,1-1.25,1.57-6.4,3.09-12.82,4.62-19.23.47-2,.53-2,2.48-1.54,1.15.28,2.29.61,3.46.81s1.34,1,1.08,2c-1.38,5.71-2.73,11.42-4.09,17.13-.14.6-.28,1.19-.42,1.82.16.1.27.23.4.24,2.58.29,2.48.29,2.46,3-.06,6.38,0,12.76,0,19.13,0,.87.32,1.18,1.18,1.15a46.11,46.11,0,0,1,4.63,0,5,5,0,0,1,1.6.75c-.51.28-1,.79-1.55.8-2.83.08-5.67,0-8.5,0h-34.63a4.26,4.26,0,0,1-1.38,0,4,4,0,0,1-1-.85c.34-.24.67-.69,1-.7,2-.07,4.1,0,6.4,0,0-.8,0-1.45,0-2.09,0-6.39,0-12.78,0-19.17,0-1.45.38-2.11,1.91-2C1620.94,624.06,1621.91,624,1623.11,624Zm-3.26,1.64v21.43h28.83V625.63Zm10.76-1.53a13.41,13.41,0,0,0,2.47,0,1.61,1.61,0,0,0,1.09-.9c1.59-6.59,3.11-13.2,4.65-19.8.24-1,.27-2-1-2.39s-1.94.38-2.21,1.55C1634,609.6,1632.32,616.7,1630.6,624.09Zm13-7.65,2,1.86-2.62.75-1.16,4.94a13,13,0,0,1,1.89,0c1.6.27,2.21-.42,2.54-2,.87-4.18,1.94-8.31,2.92-12.46.41-1.73.79-3.46,1.21-5.27l-3.7-.84-.29,1.41,2,1.81-2.62.8c-.18.71-.51,1.78-.68,2.88,0,.3.35.7.61,1s.84.81,1.26,1.22c-.57.12-1.15.26-1.72.36a3.37,3.37,0,0,1-.74-.07Zm-23.18-9.34a7.82,7.82,0,0,0,.1.8c1.34,5.13,2.67,10.25,4,15.37a1.29,1.29,0,0,0,.9.78,23.52,23.52,0,0,0,2.89-.18l-4.68-17.63Zm.59-4.86-.38.11-.32,3,2.51-.65Z" transform="translate(-57.4 -20.74)" fill="#fcb9d4"/>
    <path d="M1634.16,632c3.44-.05,6.18.84,8.27,3.29a4.6,4.6,0,0,1-.3,6.41c-3.91,3.85-11.93,3.82-15.81-.07a4.83,4.83,0,0,1,.65-7.4A10.08,10.08,0,0,1,1634.16,632Zm.1,11.19a27.5,27.5,0,0,0,5.21-1.56c3.24-1.69,3.38-5,.31-6.74a11,11,0,0,0-10.76-.18,3.7,3.7,0,0,0,.23,7.06A37,37,0,0,0,1634.26,643.19Z" transform="translate(-57.4 -20.74)" fill="#fcb9d4"/>
    <path d="M277.11,951c-1.42-5.39-2.69-10.48-4.13-15.52-.86-3,.19-5.91.44-8.85.08-.91,1-1,1.46-.3,1.84,2.62,4.21,4.88,4.95,8.25a120.54,120.54,0,0,0,3.81,13.32l4.21-18c-1.08-.71-1.35-.15-1.54.69-.69,3.06-1.42,6.12-2.13,9.18a2.76,2.76,0,0,1-.29,1,4.05,4.05,0,0,1-1,.7c-.18-.37-.54-.76-.51-1.11a18,18,0,0,1,.52-2.41c.63-2.71,1.26-5.42,1.88-8.13.32-1.4,1-2.15,2.62-2a2.39,2.39,0,0,0,1.55-.63,3.5,3.5,0,0,1,4-.59,3.12,3.12,0,0,1,1.5,3.7c-1.4,6.13-2.83,12.24-4.25,18.36-.16.69-.3,1.38-.5,2.28a26.71,26.71,0,0,0,3.7-.06c.39-.06.86-.76,1-1.25,1.57-6.4,3.09-12.82,4.62-19.23.47-2,.53-2,2.48-1.54,1.15.28,2.29.61,3.46.81s1.34,1,1.08,2c-1.38,5.71-2.73,11.42-4.09,17.13-.14.6-.28,1.19-.42,1.82.16.1.27.23.4.24,2.58.29,2.48.29,2.46,3-.06,6.38,0,12.76,0,19.13,0,.87.32,1.18,1.18,1.15a46.11,46.11,0,0,1,4.63,0,5,5,0,0,1,1.6.75c-.51.28-1,.79-1.55.8-2.83.08-5.67,0-8.5,0H267.11a4.26,4.26,0,0,1-1.38,0,4,4,0,0,1-1-.85c.34-.24.67-.69,1-.7,2-.07,4.1,0,6.4,0,0-.8,0-1.45,0-2.09,0-6.39,0-12.78,0-19.17,0-1.45.38-2.11,1.91-2C274.94,951.06,275.91,951,277.11,951Zm-3.26,1.64v21.43h28.83V952.63Zm10.76-1.53a13.41,13.41,0,0,0,2.47,0,1.61,1.61,0,0,0,1.09-.9c1.59-6.59,3.11-13.2,4.65-19.8.24-1,.27-2-1-2.39s-1.94.38-2.21,1.55C288,936.6,286.32,943.7,284.6,951.09Zm13-7.65,2,1.86-2.62.75L295.85,951a13,13,0,0,1,1.89,0c1.6.27,2.21-.42,2.54-2,.87-4.18,1.94-8.31,2.92-12.46.41-1.73.79-3.46,1.21-5.27l-3.7-.84-.29,1.41,2,1.81-2.62.8c-.18.71-.51,1.78-.68,2.88,0,.3.35.7.61,1s.84.81,1.26,1.22c-.57.12-1.15.26-1.72.36a3.37,3.37,0,0,1-.74-.07Zm-23.18-9.34a7.82,7.82,0,0,0,.1.8c1.34,5.13,2.67,10.25,4,15.37a1.29,1.29,0,0,0,.9.78,23.52,23.52,0,0,0,2.89-.18l-4.68-17.63Zm.59-4.86-.38.11-.32,3,2.51-.65Z" transform="translate(-57.4 -20.74)" fill="#fcb9d4"/>
    <path d="M288.16,959c3.44-.05,6.18.84,8.27,3.29a4.6,4.6,0,0,1-.3,6.41c-3.91,3.85-11.93,3.82-15.81-.07a4.83,4.83,0,0,1,.65-7.4A10.08,10.08,0,0,1,288.16,959Zm.1,11.19a27.5,27.5,0,0,0,5.21-1.56c3.24-1.69,3.38-5,.31-6.74a11,11,0,0,0-10.76-.18,3.7,3.7,0,0,0,.23,7.06A37,37,0,0,0,288.26,970.19Z" transform="translate(-57.4 -20.74)" fill="#fcb9d4"/>
    <path d="M446.11,233c-1.42-5.39-2.69-10.48-4.13-15.52-.86-3,.19-5.91.44-8.85.08-.91,1-1,1.46-.3,1.84,2.62,4.21,4.88,4.95,8.25a120.54,120.54,0,0,0,3.81,13.32l4.21-18c-1.08-.71-1.35-.15-1.54.69-.69,3.06-1.42,6.12-2.13,9.18a2.76,2.76,0,0,1-.29,1,4.05,4.05,0,0,1-1,.7c-.18-.37-.54-.76-.51-1.11a18,18,0,0,1,.52-2.41c.63-2.71,1.26-5.42,1.88-8.13.32-1.4,1-2.15,2.62-2a2.39,2.39,0,0,0,1.55-.63,3.5,3.5,0,0,1,4-.59,3.12,3.12,0,0,1,1.5,3.7c-1.4,6.13-2.83,12.24-4.25,18.36-.16.69-.3,1.38-.5,2.28a26.71,26.71,0,0,0,3.7-.06c.39-.06.86-.76,1-1.25,1.57-6.4,3.09-12.82,4.62-19.23.47-2,.53-2,2.48-1.54,1.15.28,2.29.61,3.46.81s1.34,1,1.08,2c-1.38,5.71-2.73,11.42-4.09,17.13-.14.6-.28,1.19-.42,1.82.16.1.27.23.4.24,2.58.29,2.48.29,2.46,3-.06,6.38,0,12.76,0,19.13,0,.87.32,1.18,1.18,1.15a46.11,46.11,0,0,1,4.63,0,5,5,0,0,1,1.6.75c-.51.28-1,.79-1.55.8-2.83.08-5.67,0-8.5,0H436.11a4.26,4.26,0,0,1-1.38,0,4,4,0,0,1-1-.85c.34-.24.67-.69,1-.7,2-.07,4.1,0,6.4,0,0-.8,0-1.45,0-2.09,0-6.39,0-12.78,0-19.17,0-1.45.38-2.11,1.91-2C443.94,233.06,444.91,233,446.11,233Zm-3.26,1.64v21.43h28.83V234.63Zm10.76-1.53a13.41,13.41,0,0,0,2.47,0,1.61,1.61,0,0,0,1.09-.9c1.59-6.59,3.11-13.2,4.65-19.8.24-1,.27-2-1-2.39s-1.94.38-2.21,1.55C457,218.6,455.32,225.7,453.6,233.09Zm13-7.65,2,1.86-2.62.75L464.85,233a13,13,0,0,1,1.89,0c1.6.27,2.21-.42,2.54-2,.87-4.18,1.94-8.31,2.92-12.46.41-1.73.79-3.46,1.21-5.27l-3.7-.84-.29,1.41,2,1.81-2.62.8c-.18.71-.51,1.78-.68,2.88,0,.3.35.7.61,1s.84.81,1.26,1.22c-.57.12-1.15.26-1.72.36a3.37,3.37,0,0,1-.74-.07Zm-23.18-9.34a7.82,7.82,0,0,0,.1.8c1.34,5.13,2.67,10.25,4,15.37a1.29,1.29,0,0,0,.9.78,23.52,23.52,0,0,0,2.89-.18l-4.68-17.63Zm.59-4.86-.38.11-.32,3,2.51-.65Z" transform="translate(-57.4 -20.74)" fill="#fcb9d4"/>
    <path d="M457.16,241c3.44-.05,6.18.84,8.27,3.29a4.6,4.6,0,0,1-.3,6.41c-3.91,3.85-11.93,3.82-15.81-.07a4.83,4.83,0,0,1,.65-7.4A10.08,10.08,0,0,1,457.16,241Zm.1,11.19a27.5,27.5,0,0,0,5.21-1.56c3.24-1.69,3.38-5,.31-6.74a11,11,0,0,0-10.76-.18,3.7,3.7,0,0,0,.23,7.06A37,37,0,0,0,457.26,252.19Z" transform="translate(-57.4 -20.74)" fill="#fcb9d4"/>
    <path d="M1070.67,260.83c4.84.58,9.68,1.11,14.5,1.79a8.37,8.37,0,0,1,3.64,1.31,5.89,5.89,0,0,1,2.32,3c.35,1.56-1.14,2.5-2.46,2.82-3.4.85-6.85,1.48-10.29,2.17-4,.79-7.93,1.45-11.85,2.36a10.61,10.61,0,0,0-3.81,1.88c-1.75,1.31-1.83,3.27,0,4.36a34.5,34.5,0,0,0,7.78,3.47c9.41,2.73,19.12,3.82,28.85,4.74,2.2.21,4.41.3,6.6.6.52.07,1,.74,1.45,1.13-.51.29-1,.86-1.53.82-12.73-.93-25.45-2-37.71-5.86a26,26,0,0,1-5.66-2.6c-4.36-2.67-4.35-7.1.31-9.14,3.7-1.62,7.8-2.38,11.78-3.25s8.08-1.36,12.1-2.15a8.1,8.1,0,0,0,2.35-1.43c-.78-.6-1.5-1.56-2.36-1.72a114.93,114.93,0,0,0-11.75-1.69c-3.82-.29-7.68-.06-11.51-.18-.68,0-1.34-.62-2-.95.66-.35,1.3-1,2-1,2.4-.12,4.81,0,7.22,0Z" transform="translate(-57.4 -20.74)" fill="#fcb9d4"/>
    <path d="M1079.24,233.5a9.75,9.75,0,0,0-1.5,1c-2.4,2.28-4.74,4.64-7.18,6.88-.46.42-1.29.44-1.95.64.19-.71.15-1.63.6-2.09,2.44-2.52,5-4.92,7.51-7.37,1.25-1.22,2.49-1.81,4.09-.46a2.75,2.75,0,0,0,1.77.21,3.6,3.6,0,0,1,3.89,2,3.34,3.34,0,0,1-.68,4.12c-6.94,6.75-13.78,13.62-20.93,20.13-1.7,1.55-4.44,2-6.76,2.81-1,.33-1.52-.49-1.14-1.4,1.13-2.72,1.72-5.64,4.08-7.83,5.85-5.44,11.52-11.08,17.26-16.64.45-.44.87-.92,1.3-1.38Zm-19.69,24.31.71.82a22.16,22.16,0,0,0,4.21-2.47c4.43-4.11,8.71-8.38,13-12.59l6.44-6.24c.77-.75,1.36-1.75.29-2.44-.57-.37-1.7,0-2.54.21-.32.07-.57.51-.85.78-5.92,5.75-11.88,11.46-17.74,17.27A42,42,0,0,0,1059.55,257.82Z" transform="translate(-57.4 -20.74)" fill="#fcb9d4"/>
    <path d="M1535.67,958.83c4.84.58,9.68,1.11,14.5,1.79a8.37,8.37,0,0,1,3.64,1.31,5.89,5.89,0,0,1,2.32,3c.35,1.56-1.14,2.5-2.46,2.82-3.4.85-6.85,1.48-10.29,2.17-4,.79-7.93,1.45-11.85,2.36a10.61,10.61,0,0,0-3.81,1.88c-1.75,1.31-1.83,3.27,0,4.36a34.5,34.5,0,0,0,7.78,3.47c9.41,2.73,19.12,3.82,28.85,4.74,2.2.21,4.41.3,6.6.6.52.07,1,.74,1.45,1.13-.51.29-1,.86-1.53.82-12.73-.93-25.45-2-37.71-5.86a26,26,0,0,1-5.66-2.6c-4.36-2.67-4.35-7.1.31-9.14,3.7-1.62,7.8-2.38,11.78-3.25s8.08-1.36,12.1-2.15a8.1,8.1,0,0,0,2.35-1.43c-.78-.6-1.5-1.56-2.36-1.72a114.93,114.93,0,0,0-11.75-1.69c-3.82-.29-7.68-.06-11.51-.18-.68,0-1.34-.62-2-.95.66-.35,1.3-1,2-1,2.4-.12,4.81,0,7.22,0Z" transform="translate(-57.4 -20.74)" fill="#fcb9d4"/>
    <path d="M1544.24,931.5a9.75,9.75,0,0,0-1.5,1c-2.4,2.28-4.74,4.64-7.18,6.88-.46.42-1.29.44-1.95.64.19-.71.15-1.63.6-2.09,2.44-2.52,5-4.92,7.51-7.37,1.25-1.22,2.49-1.81,4.09-.46a2.75,2.75,0,0,0,1.77.21,3.6,3.6,0,0,1,3.89,2,3.34,3.34,0,0,1-.68,4.12c-6.94,6.75-13.78,13.62-20.93,20.13-1.7,1.55-4.44,2-6.76,2.81-1,.33-1.52-.49-1.14-1.4,1.13-2.72,1.72-5.64,4.08-7.83,5.85-5.44,11.52-11.08,17.26-16.64.45-.44.87-.92,1.3-1.38Zm-19.69,24.31.71.82a22.16,22.16,0,0,0,4.21-2.47c4.43-4.11,8.71-8.38,13-12.59l6.44-6.24c.77-.75,1.36-1.75.29-2.44-.57-.37-1.7,0-2.54.21-.32.07-.57.51-.85.78-5.92,5.75-11.88,11.46-17.74,17.27A42,42,0,0,0,1524.55,955.82Z" transform="translate(-57.4 -20.74)" fill="#fcb9d4"/>
    <path d="M179.67,183.83c4.84.58,9.68,1.11,14.5,1.79a8.37,8.37,0,0,1,3.64,1.31,5.89,5.89,0,0,1,2.32,3c.35,1.56-1.14,2.5-2.46,2.82-3.4.85-6.85,1.48-10.29,2.17-4,.79-7.93,1.45-11.85,2.36a10.61,10.61,0,0,0-3.81,1.88c-1.75,1.31-1.83,3.27,0,4.36a34.5,34.5,0,0,0,7.78,3.47c9.41,2.73,19.12,3.82,28.85,4.74,2.2.21,4.41.3,6.6.6.52.07,1,.74,1.45,1.13-.51.29-1,.86-1.53.82-12.73-.93-25.45-2-37.71-5.86a26,26,0,0,1-5.66-2.6c-4.36-2.67-4.35-7.1.31-9.14,3.7-1.62,7.8-2.38,11.78-3.25s8.08-1.36,12.1-2.15a8.1,8.1,0,0,0,2.35-1.43c-.78-.6-1.5-1.56-2.36-1.72A114.93,114.93,0,0,0,184,186.47c-3.82-.29-7.68-.06-11.51-.18-.68,0-1.34-.62-2-.95.66-.35,1.3-1,2-1,2.4-.12,4.81,0,7.22,0Z" transform="translate(-57.4 -20.74)" fill="#fcb9d4"/>
    <path d="M188.24,156.5a9.75,9.75,0,0,0-1.5,1c-2.4,2.28-4.74,4.64-7.18,6.88-.46.42-1.29.44-1.95.64.19-.71.15-1.63.6-2.09,2.44-2.52,5-4.92,7.51-7.37,1.25-1.22,2.49-1.81,4.09-.46a2.75,2.75,0,0,0,1.77.21,3.6,3.6,0,0,1,3.89,2,3.34,3.34,0,0,1-.68,4.12c-6.94,6.75-13.78,13.62-20.93,20.13-1.7,1.55-4.44,2-6.76,2.81-1,.33-1.52-.49-1.14-1.4,1.13-2.72,1.72-5.64,4.08-7.83,5.85-5.44,11.52-11.08,17.26-16.64.45-.44.87-.92,1.3-1.38Zm-19.69,24.31.71.82a22.16,22.16,0,0,0,4.21-2.47c4.43-4.11,8.71-8.38,13-12.59l6.44-6.24c.77-.75,1.36-1.75.29-2.44-.57-.37-1.7,0-2.54.21-.32.07-.57.51-.85.78-5.92,5.75-11.88,11.46-17.74,17.27A42,42,0,0,0,168.55,180.82Z" transform="translate(-57.4 -20.74)" fill="#fcb9d4"/>
    <path d="M115.72,995a7.31,7.31,0,0,1-2.27,4.26C103,1009.71,92.34,1020,82.11,1030.73c-3.58,3.74-7.93,5.61-12.4,7.56-1,.43-1.94.86-2.94,1.23a1.25,1.25,0,0,1-1,0,1.12,1.12,0,0,1-.17-1,108.72,108.72,0,0,1,5.14-11.3c1.26-2.18,3.51-3.8,5.35-5.64q15-15.05,30.1-30.08c2.6-2.59,6.33-2.41,8.29.41A15.35,15.35,0,0,1,115.72,995Zm-38.47,37.93,26.59-26.56-1.92-2.1-26.42,26.59Zm-4.93-5.11,1.76,1.71,26.45-26.39-1.67-1.87ZM108.49,1002c1.56-1.55,3.15-3,4.59-4.61a3.71,3.71,0,0,0-.18-5,3.59,3.59,0,0,0-4.85-.48c-1.71,1.51-3.2,3.27-4.62,4.74Zm-1.38,1.48-5.26-5.31-1.72,1.56,5.13,5.29ZM71.56,1029c-2,2.67-2.15,3.53-.91,4.77,2,2,2.51,2,5.4-.15Zm-3.73,8,.2.32,3.08-1.25-2-2Z" transform="translate(-57.4 -20.74)" fill="#fcb9d4"/>
    <path d="M1849.72,956a7.31,7.31,0,0,1-2.27,4.26c-10.49,10.45-21.11,20.78-31.34,31.48-3.58,3.74-7.93,5.61-12.4,7.56-1,.43-1.94.86-2.94,1.23a1.25,1.25,0,0,1-1,0,1.12,1.12,0,0,1-.17-1,108.72,108.72,0,0,1,5.14-11.3c1.26-2.18,3.51-3.8,5.35-5.64q15-15.05,30.1-30.08c2.6-2.59,6.33-2.41,8.29.41A15.35,15.35,0,0,1,1849.72,956Zm-38.47,37.93,26.59-26.56-1.92-2.1-26.42,26.59Zm-4.93-5.11,1.76,1.71,26.45-26.39-1.67-1.87ZM1842.49,963c1.56-1.55,3.15-3,4.59-4.61a3.71,3.71,0,0,0-.18-5,3.59,3.59,0,0,0-4.85-.48c-1.71,1.51-3.2,3.27-4.62,4.74Zm-1.38,1.48-5.26-5.31-1.72,1.56,5.13,5.29ZM1805.56,990c-2,2.67-2.15,3.53-.91,4.77,2,2,2.51,2,5.4-.15Zm-3.73,8,.2.32,3.08-1.25-2-2Z" transform="translate(-57.4 -20.74)" fill="#fcb9d4"/>
    <path d="M1571.3,384c-3,3-6,5.89-8.74,8.88a11.42,11.42,0,0,1-5.71,3.5c-2.1.53-4.14,1.27-6.2,1.93-1.14.37-1.45-.25-1.18-1.13,1-3,2-6,3.06-9a5.21,5.21,0,0,1,1.39-1.7c3.32-3.21,6.66-6.39,10.41-10-1.68-1.49-3-2.58-4.26-3.79-3.71-3.65-7.35-7.38-11.08-11-1-1-1-1.61,0-2.59q4.14-4,8.11-8.11c1-1,1.64-1.12,2.7,0,4.46,4.56,9,9,13.51,13.54.37.37.76.71,1.34,1.25l10-10.16c1.08-1.1,2.16-2.2,3.27-3.27a5.36,5.36,0,1,1,7.59,7.57q-5.76,5.85-11.62,11.61a24.9,24.9,0,0,1-2.22,1.71c2,1.82,3.58,3.26,5.12,4.78,3.59,3.55,7.11,7.17,10.74,10.68,1,1,1,1.63,0,2.58-2.75,2.66-5.47,5.35-8.11,8.12-1,1.07-1.69,1-2.71,0-4.62-4.7-9.29-9.34-14-14C1572.32,385,1571.89,384.56,1571.3,384Zm24.66,6.06-15.09-15.16-8.07,8,2.54,2.57c1.09-1.21,2.06-2.4,3.17-3.45.34-.33,1.05-.27,1.59-.38-.13.51-.11,1.17-.43,1.49-1.11,1.11-2.34,2.1-3.23,2.87l3.3,3.92c1.14-1.26,2.12-2.45,3.22-3.52.32-.32,1-.3,1.47-.43-.11.54,0,1.23-.36,1.6-1,1.19-2.17,2.25-3.08,3.17l3.19,3.5c1-1.13,1.95-2.24,3-3.2a4.75,4.75,0,0,1,1.7-.6c-.16.58-.15,1.31-.52,1.7-1,1.08-2.17,2-3.23,3l2.77,3Zm-38.33-22.36c1.07-1.16,2.06-2.34,3.18-3.39.34-.32,1.05-.25,1.6-.35-.13.5-.12,1.12-.43,1.46-1,1.18-2.18,2.27-3,3.15l2.93,3.6c1.21-1.26,2.19-2.39,3.29-3.38.38-.34,1.07-.33,1.62-.48-.13.54-.09,1.25-.43,1.59-1.07,1.09-2.27,2-3.42,3l.4.32,1.47,1.82,8.06-8-14.53-14.63-8,8,2.89,3.06c1.1-1.25,2.07-2.45,3.17-3.52.34-.33,1.05-.29,1.59-.42-.15.54-.15,1.25-.49,1.59-1.08,1.07-2.3,2-3.46,3Zm31.91-4.59-1.47-1.74-30.26,30.26,1.71,1.53Zm-3.19-3.22-1.52-1.67-30.18,30.15,1.51,1.73Zm4.89,2.2c.84-1,1.6-1.85,2.37-2.72.32-.36.69-.67,1-1a3.63,3.63,0,0,0-.12-4.92,3.54,3.54,0,0,0-4.89-.34c-1.32,1.12-2.48,2.42-3.75,3.69Zm-33.33,32.11-4.28-4.55-2.16,6.7Z" transform="translate(-57.4 -20.74)" fill="#fcb9d4"/>
  </g>
  <g>
    <path d="M681.71,643h18c.94,0,2,0,2,1.26s-1.05,1.23-2,1.23c-9.27,0-18.55,0-27.82-.07a6,6,0,0,1-3.48-1.45c-2.15-1.85-4.08-4-6.08-6-3-3.07-3-7.07,0-10.11q10.6-10.64,21.25-21.22c1.54-1.54,2.66-1.55,4.19,0q6.45,6.41,12.86,12.85c1.56,1.56,1.52,2.69-.08,4.3q-8.88,8.89-17.78,17.76a10.62,10.62,0,0,1-1.27.94Zm-12.45-18.26,10.54,10.54c.33.34.83.63.95,1s.23,1.34-.07,1.64-1.13.24-1.63.06-.78-.68-1.15-1.06l-10.67-10.76-3.34,3.61a4.24,4.24,0,0,0,0,6.22,40.29,40.29,0,0,1,3.21,3.27,8.64,8.64,0,0,0,9.17,3.68,4.62,4.62,0,0,0,2.31-1c6.53-6.44,13-12.94,19.49-19.42.32-.32.6-.67.67-.75l-13.25-13.38Z" transform="translate(-57.4 -20.74)" fill="#b2edf5"/>
    <path d="M1413.71,81h18c.94,0,2,0,2,1.26s-1.05,1.23-2,1.23c-9.27,0-18.55,0-27.82-.07a6,6,0,0,1-3.48-1.45c-2.15-1.85-4.08-4-6.08-6-3-3.07-3-7.07,0-10.11q10.6-10.64,21.25-21.22c1.54-1.54,2.66-1.55,4.19,0q6.45,6.41,12.86,12.85c1.56,1.56,1.52,2.69-.08,4.3q-8.88,8.89-17.78,17.76a10.62,10.62,0,0,1-1.27.94Zm-12.45-18.26,10.54,10.54c.33.34.83.63.95,1s.23,1.34-.07,1.64-1.13.24-1.63.06-.78-.68-1.15-1.06l-10.67-10.76-3.34,3.61a4.24,4.24,0,0,0,0,6.22,40.29,40.29,0,0,1,3.21,3.27,8.64,8.64,0,0,0,9.17,3.68,4.62,4.62,0,0,0,2.31-1c6.53-6.44,13-12.94,19.49-19.42.32-.32.6-.67.67-.75l-13.25-13.38Z" transform="translate(-57.4 -20.74)" fill="#b2edf5"/>
    <path d="M97.71,345h18c.94,0,2,0,2,1.26s-1.05,1.23-2,1.23c-9.27,0-18.55,0-27.82-.07A6,6,0,0,1,84.37,346c-2.15-1.85-4.08-4-6.08-6-3-3.07-3-7.07,0-10.11q10.6-10.64,21.25-21.22c1.54-1.54,2.66-1.55,4.19,0q6.45,6.41,12.86,12.85c1.56,1.56,1.52,2.69-.08,4.3q-8.88,8.89-17.78,17.76a10.62,10.62,0,0,1-1.27.94ZM85.27,326.74l10.54,10.54c.33.34.83.63.95,1s.23,1.34-.07,1.64-1.13.24-1.63.06-.78-.68-1.15-1.06L83.24,328.21l-3.34,3.61a4.24,4.24,0,0,0,0,6.22,40.29,40.29,0,0,1,3.21,3.27A8.64,8.64,0,0,0,92.31,345a4.62,4.62,0,0,0,2.31-1c6.53-6.44,13-12.94,19.49-19.42.32-.32.6-.67.67-.75l-13.25-13.38Z" transform="translate(-57.4 -20.74)" fill="#b2edf5"/>
    <path d="M1299.71,701h18c.94,0,2,0,2,1.26s-1.05,1.23-2,1.23c-9.27,0-18.55,0-27.82-.07a6,6,0,0,1-3.48-1.45c-2.15-1.85-4.08-4-6.08-6-3-3.07-3-7.07,0-10.11q10.6-10.64,21.25-21.22c1.54-1.54,2.66-1.55,4.19,0q6.45,6.41,12.86,12.85c1.56,1.56,1.52,2.69-.08,4.3q-8.88,8.89-17.78,17.76a10.62,10.62,0,0,1-1.27.94Zm-12.45-18.26,10.54,10.54c.33.34.83.63.95,1s.23,1.34-.07,1.64-1.13.24-1.63.06-.78-.68-1.15-1.06l-10.67-10.76-3.34,3.61a4.24,4.24,0,0,0,0,6.22,40.29,40.29,0,0,1,3.21,3.27,8.64,8.64,0,0,0,9.17,3.68,4.62,4.62,0,0,0,2.31-1c6.53-6.44,13-12.94,19.49-19.42.32-.32.6-.67.67-.75l-13.25-13.38Z" transform="translate(-57.4 -20.74)" fill="#b2edf5"/>
    <path d="M1824.71,404h18c.94,0,2,0,2,1.26s-1.05,1.23-2,1.23c-9.27,0-18.55,0-27.82-.07a6,6,0,0,1-3.48-1.45c-2.15-1.85-4.08-4-6.08-6-3-3.07-3-7.07,0-10.11q10.6-10.64,21.25-21.22c1.54-1.54,2.66-1.55,4.19,0q6.45,6.41,12.86,12.85c1.56,1.56,1.52,2.69-.08,4.3q-8.88,8.89-17.78,17.76a10.62,10.62,0,0,1-1.27.94Zm-12.45-18.26,10.54,10.54c.33.34.83.63.95,1s.23,1.34-.07,1.64-1.13.24-1.63.06-.78-.68-1.15-1.06l-10.67-10.76-3.34,3.61a4.24,4.24,0,0,0,0,6.22,40.29,40.29,0,0,1,3.21,3.27,8.64,8.64,0,0,0,9.17,3.68,4.62,4.62,0,0,0,2.31-1c6.53-6.44,13-12.94,19.49-19.42.32-.32.6-.67.67-.75l-13.25-13.38Z" transform="translate(-57.4 -20.74)" fill="#b2edf5"/>
  </g>
  <g>
    <path d="M1309.26,418.67h-71c0-.78-.1-1.47-.1-2.15q0-18.8,0-37.6c0-3.56,1.13-4.69,4.71-4.69h62c3.14,0,4.48,1.17,4.48,4.06q0,19.54,0,39.09C1309.39,417.73,1309.32,418.08,1309.26,418.67Zm-35.37-3.2h28.87c3.11,0,3.35-.25,3.35-3.42q0-15.6,0-31.2c0-3-.34-3.32-3.25-3.32h-58.16c-2.88,0-3.23.33-3.23,3.12q0,15.81,0,31.63c0,2.9.29,3.18,3.13,3.19Z" transform="translate(-57.4 -20.74)" fill="#fcb9d4"/>
    <path d="M1233.16,419.84h2.09c8.7,0,17.48-.74,26.07.23,6.89.78,13.85,1.52,20.52.59,10.15-1.41,20.23-.24,30.32-.82.76,0,1.53,0,2.31,0-.24,2.71-1.58,4.15-3.9,4.36-.35,0-.71,0-1.06,0H1238C1234.75,424.22,1233.2,422.86,1233.16,419.84Z" transform="translate(-57.4 -20.74)" fill="#fcb9d4"/>
    <path d="M892.47,593.85c0,6.4,0,12.8,0,19.2,0,4.14-1.35,5.57-5.38,5.61-5.14.06-10.28.07-15.42,0-3.69-.05-5.13-1.53-5.14-5.23q0-19.67,0-39.35c0-3.8,1.55-5.3,5.38-5.33,5.14,0,10.28-.06,15.42,0,3.56,0,5.11,1.65,5.13,5.27C892.49,580.63,892.47,587.24,892.47,593.85Zm-1.83-.81c0-5.55-.07-11.1,0-16.65,0-2.41-.81-3.41-3.29-3.35q-7.85.17-15.71,0c-2.46-.06-3.34.88-3.32,3.31q.11,16.81,0,33.62c0,2.56,1.12,3.27,3.43,3.23,5.13-.08,10.27-.1,15.39,0,2.57.06,3.56-.92,3.51-3.51C890.56,604.14,890.64,598.59,890.64,593Z" transform="translate(-57.4 -20.74)" fill="#fcb9d4"/>
    <path d="M164.47,683.85c0,6.4,0,12.8,0,19.2,0,4.14-1.35,5.57-5.38,5.61-5.14.06-10.28.07-15.42,0-3.69-.05-5.13-1.53-5.14-5.23q0-19.67,0-39.35c0-3.8,1.55-5.3,5.38-5.33,5.14,0,10.28-.06,15.42,0,3.56,0,5.11,1.65,5.13,5.27C164.49,670.63,164.47,677.24,164.47,683.85Zm-1.83-.81c0-5.55-.07-11.1,0-16.65,0-2.41-.81-3.41-3.29-3.35q-7.85.17-15.71,0c-2.46-.06-3.34.88-3.32,3.31q.11,16.81,0,33.62c0,2.56,1.12,3.27,3.43,3.23,5.13-.08,10.27-.1,15.39,0,2.57.06,3.56-.92,3.51-3.51C162.56,694.14,162.64,688.59,162.64,683Z" transform="translate(-57.4 -20.74)" fill="#fcb9d4"/>
    <path d="M716.26,274.67h-71c0-.78-.1-1.47-.1-2.15q0-18.8,0-37.6c0-3.56,1.13-4.69,4.71-4.69h62c3.14,0,4.48,1.17,4.48,4.06q0,19.54,0,39.09C716.39,273.73,716.32,274.08,716.26,274.67Zm-35.37-3.2h28.87c3.11,0,3.35-.25,3.35-3.42q0-15.6,0-31.2c0-3-.34-3.32-3.25-3.32H651.69c-2.88,0-3.23.33-3.23,3.12q0,15.81,0,31.63c0,2.9.29,3.18,3.13,3.19Z" transform="translate(-57.4 -20.74)" fill="#f9d2e4"/>
    <path d="M640.16,275.84h2.09c8.7,0,17.48-.74,26.07.23,6.89.78,13.85,1.52,20.52.59,10.15-1.41,20.23-.24,30.32-.82.76,0,1.53,0,2.31,0-.24,2.71-1.58,4.15-3.9,4.36-.35,0-.71,0-1.06,0H645C641.75,280.22,640.2,278.86,640.16,275.84Z" transform="translate(-57.4 -20.74)" fill="#f9d2e4"/>
    <path d="M333.26,528.67h-71c0-.78-.1-1.47-.1-2.15q0-18.8,0-37.6c0-3.56,1.13-4.69,4.71-4.69h62c3.14,0,4.48,1.17,4.48,4.06q0,19.54,0,39.09C333.39,527.73,333.32,528.08,333.26,528.67Zm-35.37-3.2h28.87c3.11,0,3.35-.25,3.35-3.42q0-15.6,0-31.2c0-3-.34-3.32-3.25-3.32H268.69c-2.88,0-3.23.33-3.23,3.12q0,15.81,0,31.63c0,2.9.29,3.18,3.13,3.19Z" transform="translate(-57.4 -20.74)" fill="#fcb9d4"/>
    <path d="M257.16,529.84h2.09c8.7,0,17.48-.74,26.07.23,6.89.78,13.85,1.52,20.52.59,10.15-1.41,20.23-.24,30.32-.82.76,0,1.53,0,2.31,0-.24,2.71-1.58,4.15-3.9,4.36-.35,0-.71,0-1.06,0H262C258.75,534.22,257.2,532.86,257.16,529.84Z" transform="translate(-57.4 -20.74)" fill="#fcb9d4"/>
    <path d="M1338.26,1043.67h-71c0-.78-.1-1.47-.1-2.15q0-18.8,0-37.6c0-3.56,1.13-4.69,4.71-4.69h62c3.14,0,4.48,1.17,4.48,4.06q0,19.54,0,39.09C1338.39,1042.73,1338.32,1043.08,1338.26,1043.67Zm-35.37-3.2h28.87c3.11,0,3.35-.25,3.35-3.42q0-15.6,0-31.2c0-3-.34-3.32-3.25-3.32h-58.16c-2.88,0-3.23.33-3.23,3.12q0,15.81,0,31.63c0,2.9.29,3.18,3.13,3.19Z" transform="translate(-57.4 -20.74)" fill="#fcb9d4"/>
    <path d="M1262.16,1044.84h2.09c8.7,0,17.48-.74,26.07.23,6.89.78,13.85,1.52,20.52.59,10.15-1.41,20.23-.24,30.32-.82.76,0,1.53,0,2.31,0-.24,2.71-1.58,4.15-3.9,4.36-.35,0-.71,0-1.06,0H1267C1263.75,1049.22,1262.2,1047.86,1262.16,1044.84Z" transform="translate(-57.4 -20.74)" fill="#fcb9d4"/>
    <path d="M332.47,83.85c0,6.4,0,12.8,0,19.2,0,4.14-1.35,5.57-5.38,5.61-5.14.06-10.28.07-15.42,0-3.69-.05-5.13-1.53-5.14-5.23q0-19.67,0-39.35c0-3.8,1.55-5.3,5.38-5.33,5.14,0,10.28-.06,15.42,0,3.56,0,5.11,1.65,5.13,5.27C332.49,70.63,332.47,77.24,332.47,83.85ZM330.64,83c0-5.55-.07-11.1,0-16.65,0-2.41-.81-3.41-3.29-3.35q-7.85.17-15.71,0c-2.46-.06-3.34.88-3.32,3.31q.11,16.81,0,33.62c0,2.56,1.12,3.27,3.43,3.23,5.13-.08,10.27-.1,15.39,0,2.57.06,3.56-.92,3.51-3.51C330.56,94.14,330.64,88.59,330.64,83Z" transform="translate(-57.4 -20.74)" fill="#fcb9d4"/>
    <path d="M1547.47,221.85c0,6.4,0,12.8,0,19.2,0,4.14-1.35,5.57-5.38,5.61-5.14.06-10.28.07-15.42,0-3.69-.05-5.13-1.53-5.14-5.23q0-19.67,0-39.35c0-3.8,1.55-5.3,5.38-5.33,5.14,0,10.28-.06,15.42,0,3.56,0,5.11,1.65,5.13,5.27C1547.49,208.63,1547.47,215.24,1547.47,221.85Zm-1.83-.81c0-5.55-.07-11.1,0-16.65,0-2.41-.81-3.41-3.29-3.35q-7.85.17-15.71,0c-2.46-.06-3.34.88-3.32,3.31q.11,16.81,0,33.62c0,2.56,1.12,3.27,3.43,3.23,5.13-.08,10.27-.1,15.39,0,2.57.06,3.56-.92,3.51-3.51C1545.56,232.14,1545.64,226.59,1545.64,221Z" transform="translate(-57.4 -20.74)" fill="#fcb9d4"/>
    <path d="M592.26,834.67h-71c0-.78-.1-1.47-.1-2.15q0-18.8,0-37.6c0-3.56,1.13-4.69,4.71-4.69h62c3.14,0,4.48,1.17,4.48,4.06q0,19.54,0,39.09C592.39,833.73,592.32,834.08,592.26,834.67Zm-35.37-3.2h28.87c3.11,0,3.35-.25,3.35-3.42q0-15.6,0-31.2c0-3-.34-3.32-3.25-3.32H527.69c-2.88,0-3.23.33-3.23,3.12q0,15.81,0,31.63c0,2.9.29,3.18,3.13,3.19Z" transform="translate(-57.4 -20.74)" fill="#fcb9d4"/>
    <path d="M516.16,835.84h2.09c8.7,0,17.48-.74,26.07.23,6.89.78,13.85,1.52,20.52.59,10.15-1.41,20.23-.24,30.32-.82.76,0,1.53,0,2.31,0-.24,2.71-1.58,4.15-3.9,4.36-.35,0-.71,0-1.06,0H521C517.75,840.22,516.2,838.86,516.16,835.84Z" transform="translate(-57.4 -20.74)" fill="#fcb9d4"/>
  </g>
  <g>
    <g>
      <path d="M1050,449.93q0,10.85,0,21.7a3.09,3.09,0,0,1-2.3,3.15,3.69,3.69,0,0,1-.95.11h-27.42a3.1,3.1,0,0,1-3.27-3.3q0-21.7,0-43.41a3.09,3.09,0,0,1,3.23-3.29q13.76,0,27.51,0a3.08,3.08,0,0,1,3.19,3.27Q1050,439.06,1050,449.93Zm-1.78,0q0-10.83,0-21.66c0-1.12-.5-1.63-1.6-1.63h-27.18c-1.09,0-1.6.5-1.6,1.58q0,21.66,0,43.31c0,1.07.51,1.57,1.6,1.57h27.13c1.17,0,1.65-.49,1.65-1.67Q1048.19,460.71,1048.19,449.95Z" transform="translate(-57.4 -20.74)" fill="#b2edf5"/>
      <path d="M1033,438.28h-11.86c-1.07,0-1.53-.45-1.53-1.5q0-3,0-5.9c0-1.05.46-1.51,1.53-1.51h23.71c1.07,0,1.53.46,1.53,1.51q0,3,0,6a1.29,1.29,0,0,1-1.48,1.46Zm11.6-7.09h-23.2v5.29h23.2Z" transform="translate(-57.4 -20.74)" fill="#b2edf5"/>
      <path d="M1038.37,462.39q0-3.29,0-6.58c0-1,.43-1.43,1.43-1.44,1.42,0,2.85,0,4.27,0,1,0,1.41.44,1.41,1.45q0,6.55,0,13.1c0,1.09-.42,1.51-1.5,1.51h-4.27a1.21,1.21,0,0,1-1.34-1.33Q1038.37,465.75,1038.37,462.39Zm5.33,6.24V456.17h-3.54v12.45Z" transform="translate(-57.4 -20.74)" fill="#b2edf5"/>
      <path d="M1035.67,466.9c0,.75,0,1.5,0,2.25a1.2,1.2,0,0,1-1.29,1.28h-4.56a1.18,1.18,0,0,1-1.28-1.29q0-2.25,0-4.51a1.19,1.19,0,0,1,1.33-1.33q2.21,0,4.41,0a1.22,1.22,0,0,1,1.38,1.39C1035.67,465.43,1035.67,466.16,1035.67,466.9Zm-1.8-1.79h-3.52v3.5h3.52Z" transform="translate(-57.4 -20.74)" fill="#b2edf5"/>
      <path d="M1019.61,466.85c0-.75,0-1.5,0-2.25a1.17,1.17,0,0,1,1.27-1.29q2.3,0,4.6,0a1.18,1.18,0,0,1,1.24,1.24q0,2.33,0,4.65a1.17,1.17,0,0,1-1.23,1.24q-2.33,0-4.65,0a1.17,1.17,0,0,1-1.24-1.23C1019.6,468.42,1019.61,467.64,1019.61,466.85Zm5.32,1.78v-3.52h-3.52v3.52Z" transform="translate(-57.4 -20.74)" fill="#b2edf5"/>
      <path d="M1019.61,449c0-.74,0-1.47,0-2.21a1.19,1.19,0,0,1,1.28-1.34q2.28,0,4.56,0a1.2,1.2,0,0,1,1.29,1.34q0,2.23,0,4.46a1.21,1.21,0,0,1-1.33,1.34H1021a1.21,1.21,0,0,1-1.38-1.38c0-.37,0-.73,0-1.1s0-.74,0-1.1Zm1.78,1.78h3.54v-3.52h-3.54Z" transform="translate(-57.4 -20.74)" fill="#b2edf5"/>
      <path d="M1032.14,461.51h-2.3a1.18,1.18,0,0,1-1.29-1.28q0-2.33,0-4.65a1.11,1.11,0,0,1,1.13-1.19q2.42,0,4.84,0a1.14,1.14,0,0,1,1.15,1.22c0,1.55,0,3.1,0,4.65a1.18,1.18,0,0,1-1.28,1.25Zm-1.79-5.34v3.52h3.51v-3.52Z" transform="translate(-57.4 -20.74)" fill="#b2edf5"/>
      <path d="M1019.61,457.91c0-.75,0-1.5,0-2.25a1.16,1.16,0,0,1,1.24-1.28c1.53,0,3.07,0,4.6,0a1.18,1.18,0,0,1,1.28,1.34q0,2.21,0,4.41a1.22,1.22,0,0,1-1.39,1.38H1021a1.22,1.22,0,0,1-1.38-1.39q0-1.1,0-2.21Zm5.32-1.77c-1.13,0-2.23,0-3.32,0a.32.32,0,0,0-.22.22c0,1.1,0,2.2,0,3.32h3.55Z" transform="translate(-57.4 -20.74)" fill="#b2edf5"/>
      <path d="M1035.67,449c0,.75,0,1.5,0,2.25a1.21,1.21,0,0,1-1.3,1.33h-4.56a1.18,1.18,0,0,1-1.28-1.25q0-2.33,0-4.65a1.14,1.14,0,0,1,1.2-1.23q2.37,0,4.75,0a1.15,1.15,0,0,1,1.18,1.24c0,.77,0,1.53,0,2.3Zm-5.35-1.75v3.53h3.54v-3.53Z" transform="translate(-57.4 -20.74)" fill="#b2edf5"/>
      <path d="M1038.37,449c0-.8,0-1.6,0-2.4a1.13,1.13,0,0,1,1.13-1.18q2.44,0,4.89,0a1.12,1.12,0,0,1,1.1,1.22q0,2.37,0,4.74a1.14,1.14,0,0,1-1.12,1.15c-1.61,0-3.23,0-4.84,0a1.16,1.16,0,0,1-1.15-1.23C1038.36,450.57,1038.37,449.8,1038.37,449Zm1.78-1.81v3.53h3.54v-3.53Z" transform="translate(-57.4 -20.74)" fill="#b2edf5"/>
      <path d="M1033,441h2.54c.64,0,1,.35,1,.89s-.38.89-1,.89h-5.08c-.64,0-1-.35-1-.89s.39-.88,1-.89Z" transform="translate(-57.4 -20.74)" fill="#b2edf5"/>
      <path d="M1041.93,442.75h-2.54c-.65,0-1-.34-1-.89s.38-.88,1-.88h5c.68,0,1.06.33,1.07.89s-.39.88-1.07.89Z" transform="translate(-57.4 -20.74)" fill="#b2edf5"/>
      <path d="M1024,442.75h-2.49c-.68,0-1.06-.35-1-.91s.39-.86,1-.87h5.08a.88.88,0,0,1,1,.86c0,.55-.35.91-1,.91C1025.77,442.76,1024.91,442.75,1024,442.75Z" transform="translate(-57.4 -20.74)" fill="#b2edf5"/>
    </g>
    <g>
      <path d="M738,91.93q0,10.85,0,21.7a3.09,3.09,0,0,1-2.3,3.15,3.69,3.69,0,0,1-.95.11H707.29a3.1,3.1,0,0,1-3.27-3.3q0-21.7,0-43.41a3.09,3.09,0,0,1,3.23-3.29q13.76,0,27.51,0A3.08,3.08,0,0,1,738,70.18Q738,81.06,738,91.93Zm-1.78,0q0-10.83,0-21.66c0-1.12-.5-1.63-1.6-1.63H707.41c-1.09,0-1.6.5-1.6,1.58q0,21.66,0,43.31c0,1.07.51,1.57,1.6,1.57h27.13c1.17,0,1.65-.49,1.65-1.67Q736.19,102.71,736.19,91.95Z" transform="translate(-57.4 -20.74)" fill="#b2edf5"/>
      <path d="M721,80.28H709.14c-1.07,0-1.53-.45-1.53-1.5q0-3,0-5.9c0-1.05.46-1.51,1.53-1.51h23.71c1.07,0,1.53.46,1.53,1.51q0,3,0,6a1.29,1.29,0,0,1-1.48,1.46Zm11.6-7.09H709.4v5.29h23.2Z" transform="translate(-57.4 -20.74)" fill="#b2edf5"/>
      <path d="M726.37,104.39q0-3.29,0-6.58c0-1,.43-1.43,1.43-1.44,1.42,0,2.85,0,4.27,0,1,0,1.41.44,1.41,1.45q0,6.55,0,13.1c0,1.09-.42,1.51-1.5,1.51h-4.27a1.21,1.21,0,0,1-1.34-1.33Q726.37,107.75,726.37,104.39Zm5.33,6.24V98.17h-3.54v12.45Z" transform="translate(-57.4 -20.74)" fill="#b2edf5"/>
      <path d="M723.67,108.9c0,.75,0,1.5,0,2.25a1.2,1.2,0,0,1-1.29,1.28h-4.56a1.18,1.18,0,0,1-1.28-1.29q0-2.25,0-4.51a1.19,1.19,0,0,1,1.33-1.33q2.21,0,4.41,0a1.22,1.22,0,0,1,1.38,1.39C723.67,107.43,723.67,108.16,723.67,108.9Zm-1.8-1.79h-3.52v3.5h3.52Z" transform="translate(-57.4 -20.74)" fill="#b2edf5"/>
      <path d="M707.61,108.85c0-.75,0-1.5,0-2.25a1.17,1.17,0,0,1,1.27-1.29q2.3,0,4.6,0a1.18,1.18,0,0,1,1.24,1.24q0,2.33,0,4.65a1.17,1.17,0,0,1-1.23,1.24q-2.33,0-4.65,0a1.17,1.17,0,0,1-1.24-1.23C707.6,110.42,707.61,109.64,707.61,108.85Zm5.32,1.78v-3.52h-3.52v3.52Z" transform="translate(-57.4 -20.74)" fill="#b2edf5"/>
      <path d="M707.61,91c0-.74,0-1.47,0-2.21a1.19,1.19,0,0,1,1.28-1.34q2.28,0,4.56,0a1.2,1.2,0,0,1,1.29,1.34q0,2.23,0,4.46a1.21,1.21,0,0,1-1.33,1.34H709a1.21,1.21,0,0,1-1.38-1.38c0-.37,0-.73,0-1.1s0-.74,0-1.1Zm1.78,1.78h3.54V89.25h-3.54Z" transform="translate(-57.4 -20.74)" fill="#b2edf5"/>
      <path d="M720.14,103.51h-2.3a1.18,1.18,0,0,1-1.29-1.28q0-2.33,0-4.65a1.11,1.11,0,0,1,1.13-1.19q2.42,0,4.84,0a1.14,1.14,0,0,1,1.15,1.22c0,1.55,0,3.1,0,4.65a1.18,1.18,0,0,1-1.28,1.25Zm-1.79-5.34v3.52h3.51V98.17Z" transform="translate(-57.4 -20.74)" fill="#b2edf5"/>
      <path d="M707.61,99.91c0-.75,0-1.5,0-2.25a1.16,1.16,0,0,1,1.24-1.28c1.53,0,3.07,0,4.6,0a1.18,1.18,0,0,1,1.28,1.34q0,2.21,0,4.41a1.22,1.22,0,0,1-1.39,1.38H709a1.22,1.22,0,0,1-1.38-1.39q0-1.1,0-2.21Zm5.32-1.77c-1.13,0-2.23,0-3.32,0a.32.32,0,0,0-.22.22c0,1.1,0,2.2,0,3.32h3.55Z" transform="translate(-57.4 -20.74)" fill="#b2edf5"/>
      <path d="M723.67,91c0,.75,0,1.5,0,2.25a1.21,1.21,0,0,1-1.3,1.33h-4.56a1.18,1.18,0,0,1-1.28-1.25q0-2.33,0-4.65a1.14,1.14,0,0,1,1.2-1.23q2.37,0,4.75,0a1.15,1.15,0,0,1,1.18,1.24c0,.77,0,1.53,0,2.3Zm-5.35-1.75v3.53h3.54V89.23Z" transform="translate(-57.4 -20.74)" fill="#b2edf5"/>
      <path d="M726.37,91c0-.8,0-1.6,0-2.4a1.13,1.13,0,0,1,1.13-1.18q2.44,0,4.89,0a1.12,1.12,0,0,1,1.1,1.22q0,2.37,0,4.74a1.14,1.14,0,0,1-1.12,1.15c-1.61,0-3.23,0-4.84,0a1.16,1.16,0,0,1-1.15-1.23C726.36,92.57,726.37,91.8,726.37,91Zm1.78-1.81v3.53h3.54V89.23Z" transform="translate(-57.4 -20.74)" fill="#b2edf5"/>
      <path d="M721,83h2.54c.64,0,1,.35,1,.89s-.38.89-1,.89h-5.08c-.64,0-1-.35-1-.89s.39-.88,1-.89Z" transform="translate(-57.4 -20.74)" fill="#b2edf5"/>
      <path d="M729.93,84.75h-2.54c-.65,0-1-.34-1-.89s.38-.88,1-.88h5c.68,0,1.06.33,1.07.89s-.39.88-1.07.89Z" transform="translate(-57.4 -20.74)" fill="#b2edf5"/>
      <path d="M712,84.75h-2.49c-.68,0-1.06-.35-1-.91s.39-.86,1-.87h5.08a.88.88,0,0,1,1,.86c0,.55-.35.91-1,.91C713.77,84.76,712.91,84.75,712,84.75Z" transform="translate(-57.4 -20.74)" fill="#b2edf5"/>
    </g>
    <g>
      <path d="M1358,879.93q0,10.85,0,21.7a3.09,3.09,0,0,1-2.3,3.15,3.69,3.69,0,0,1-.95.11h-27.42a3.1,3.1,0,0,1-3.27-3.3q0-21.7,0-43.41a3.09,3.09,0,0,1,3.23-3.29q13.76,0,27.51,0a3.08,3.08,0,0,1,3.19,3.27Q1358,869.06,1358,879.93Zm-1.78,0q0-10.83,0-21.66c0-1.12-.5-1.63-1.6-1.63h-27.18c-1.09,0-1.6.5-1.6,1.58q0,21.66,0,43.31c0,1.07.51,1.57,1.6,1.57h27.13c1.17,0,1.65-.49,1.65-1.67Q1356.19,890.71,1356.19,879.95Z" transform="translate(-57.4 -20.74)" fill="#b2edf5"/>
      <path d="M1341,868.28h-11.86c-1.07,0-1.53-.45-1.53-1.5q0-3,0-5.9c0-1.05.46-1.51,1.53-1.51h23.71c1.07,0,1.53.46,1.53,1.51q0,3,0,6a1.29,1.29,0,0,1-1.48,1.46Zm11.6-7.09h-23.2v5.29h23.2Z" transform="translate(-57.4 -20.74)" fill="#b2edf5"/>
      <path d="M1346.37,892.39q0-3.29,0-6.58c0-1,.43-1.43,1.43-1.44,1.42,0,2.85,0,4.27,0,1,0,1.41.44,1.41,1.45q0,6.55,0,13.1c0,1.09-.42,1.51-1.5,1.51h-4.27a1.21,1.21,0,0,1-1.34-1.33Q1346.37,895.75,1346.37,892.39Zm5.33,6.24V886.17h-3.54v12.45Z" transform="translate(-57.4 -20.74)" fill="#b2edf5"/>
      <path d="M1343.67,896.9c0,.75,0,1.5,0,2.25a1.2,1.2,0,0,1-1.29,1.28h-4.56a1.18,1.18,0,0,1-1.28-1.29q0-2.25,0-4.51a1.19,1.19,0,0,1,1.33-1.33q2.21,0,4.41,0a1.22,1.22,0,0,1,1.38,1.39C1343.67,895.43,1343.67,896.16,1343.67,896.9Zm-1.8-1.79h-3.52v3.5h3.52Z" transform="translate(-57.4 -20.74)" fill="#b2edf5"/>
      <path d="M1327.61,896.85c0-.75,0-1.5,0-2.25a1.17,1.17,0,0,1,1.27-1.29q2.3,0,4.6,0a1.18,1.18,0,0,1,1.24,1.24q0,2.33,0,4.65a1.17,1.17,0,0,1-1.23,1.24q-2.33,0-4.65,0a1.17,1.17,0,0,1-1.24-1.23C1327.6,898.42,1327.61,897.64,1327.61,896.85Zm5.32,1.78v-3.52h-3.52v3.52Z" transform="translate(-57.4 -20.74)" fill="#b2edf5"/>
      <path d="M1327.61,879c0-.74,0-1.47,0-2.21a1.19,1.19,0,0,1,1.28-1.34q2.28,0,4.56,0a1.2,1.2,0,0,1,1.29,1.34q0,2.23,0,4.46a1.21,1.21,0,0,1-1.33,1.34H1329a1.21,1.21,0,0,1-1.38-1.38c0-.37,0-.73,0-1.1s0-.74,0-1.1Zm1.78,1.78h3.54v-3.52h-3.54Z" transform="translate(-57.4 -20.74)" fill="#b2edf5"/>
      <path d="M1340.14,891.51h-2.3a1.18,1.18,0,0,1-1.29-1.28q0-2.33,0-4.65a1.11,1.11,0,0,1,1.13-1.19q2.42,0,4.84,0a1.14,1.14,0,0,1,1.15,1.22c0,1.55,0,3.1,0,4.65a1.18,1.18,0,0,1-1.28,1.25Zm-1.79-5.34v3.52h3.51v-3.52Z" transform="translate(-57.4 -20.74)" fill="#b2edf5"/>
      <path d="M1327.61,887.91c0-.75,0-1.5,0-2.25a1.16,1.16,0,0,1,1.24-1.28c1.53,0,3.07,0,4.6,0a1.18,1.18,0,0,1,1.28,1.34q0,2.21,0,4.41a1.22,1.22,0,0,1-1.39,1.38H1329a1.22,1.22,0,0,1-1.38-1.39q0-1.1,0-2.21Zm5.32-1.77c-1.13,0-2.23,0-3.32,0a.32.32,0,0,0-.22.22c0,1.1,0,2.2,0,3.32h3.55Z" transform="translate(-57.4 -20.74)" fill="#b2edf5"/>
      <path d="M1343.67,879c0,.75,0,1.5,0,2.25a1.21,1.21,0,0,1-1.3,1.33h-4.56a1.18,1.18,0,0,1-1.28-1.25q0-2.33,0-4.65a1.14,1.14,0,0,1,1.2-1.23q2.37,0,4.75,0a1.15,1.15,0,0,1,1.18,1.24c0,.77,0,1.53,0,2.3Zm-5.35-1.75v3.53h3.54v-3.53Z" transform="translate(-57.4 -20.74)" fill="#b2edf5"/>
      <path d="M1346.37,879c0-.8,0-1.6,0-2.4a1.13,1.13,0,0,1,1.13-1.18q2.44,0,4.89,0a1.12,1.12,0,0,1,1.1,1.22q0,2.37,0,4.74a1.14,1.14,0,0,1-1.12,1.15c-1.61,0-3.23,0-4.84,0a1.16,1.16,0,0,1-1.15-1.23C1346.36,880.57,1346.37,879.8,1346.37,879Zm1.78-1.81v3.53h3.54v-3.53Z" transform="translate(-57.4 -20.74)" fill="#b2edf5"/>
      <path d="M1341,871h2.54c.64,0,1,.35,1,.89s-.38.89-1,.89h-5.08c-.64,0-1-.35-1-.89s.39-.88,1-.89Z" transform="translate(-57.4 -20.74)" fill="#b2edf5"/>
      <path d="M1349.93,872.75h-2.54c-.65,0-1-.34-1-.89s.38-.88,1-.88h5c.68,0,1.06.33,1.07.89s-.39.88-1.07.89Z" transform="translate(-57.4 -20.74)" fill="#b2edf5"/>
      <path d="M1332,872.75h-2.49c-.68,0-1.06-.35-1-.91s.39-.86,1-.87h5.08a.88.88,0,0,1,1,.86c0,.55-.35.91-1,.91C1333.77,872.76,1332.91,872.75,1332,872.75Z" transform="translate(-57.4 -20.74)" fill="#b2edf5"/>
    </g>
    <g>
      <path d="M133,866.93q0,10.85,0,21.7a3.09,3.09,0,0,1-2.3,3.15,3.69,3.69,0,0,1-.95.11H102.29A3.1,3.1,0,0,1,99,888.6q0-21.7,0-43.41a3.09,3.09,0,0,1,3.23-3.29q13.76,0,27.51,0a3.08,3.08,0,0,1,3.19,3.27Q133,856.06,133,866.93Zm-1.78,0q0-10.83,0-21.66c0-1.12-.5-1.63-1.6-1.63H102.41c-1.09,0-1.6.5-1.6,1.58q0,21.66,0,43.31c0,1.07.51,1.57,1.6,1.57h27.13c1.17,0,1.65-.49,1.65-1.67Q131.19,877.71,131.19,866.95Z" transform="translate(-57.4 -20.74)" fill="#b2edf5"/>
      <path d="M116,855.28H104.14c-1.07,0-1.53-.45-1.53-1.5q0-3,0-5.9c0-1.05.46-1.51,1.53-1.51h23.71c1.07,0,1.53.46,1.53,1.51q0,3,0,6a1.29,1.29,0,0,1-1.48,1.46Zm11.6-7.09H104.4v5.29h23.2Z" transform="translate(-57.4 -20.74)" fill="#b2edf5"/>
      <path d="M121.37,879.39q0-3.29,0-6.58c0-1,.43-1.43,1.43-1.44,1.42,0,2.85,0,4.27,0,1,0,1.41.44,1.41,1.45q0,6.55,0,13.1c0,1.09-.42,1.51-1.5,1.51h-4.27a1.21,1.21,0,0,1-1.34-1.33Q121.37,882.75,121.37,879.39Zm5.33,6.24V873.17h-3.54v12.45Z" transform="translate(-57.4 -20.74)" fill="#b2edf5"/>
      <path d="M118.67,883.9c0,.75,0,1.5,0,2.25a1.2,1.2,0,0,1-1.29,1.28h-4.56a1.18,1.18,0,0,1-1.28-1.29q0-2.25,0-4.51a1.19,1.19,0,0,1,1.33-1.33q2.21,0,4.41,0a1.22,1.22,0,0,1,1.38,1.39C118.67,882.43,118.67,883.16,118.67,883.9Zm-1.8-1.79h-3.52v3.5h3.52Z" transform="translate(-57.4 -20.74)" fill="#b2edf5"/>
      <path d="M102.61,883.85c0-.75,0-1.5,0-2.25a1.17,1.17,0,0,1,1.27-1.29q2.3,0,4.6,0a1.18,1.18,0,0,1,1.24,1.24q0,2.33,0,4.65a1.17,1.17,0,0,1-1.23,1.24q-2.33,0-4.65,0a1.17,1.17,0,0,1-1.24-1.23C102.6,885.42,102.61,884.64,102.61,883.85Zm5.32,1.78v-3.52h-3.52v3.52Z" transform="translate(-57.4 -20.74)" fill="#b2edf5"/>
      <path d="M102.61,866c0-.74,0-1.47,0-2.21a1.19,1.19,0,0,1,1.28-1.34q2.28,0,4.56,0a1.2,1.2,0,0,1,1.29,1.34q0,2.23,0,4.46a1.21,1.21,0,0,1-1.33,1.34H104a1.21,1.21,0,0,1-1.38-1.38c0-.37,0-.73,0-1.1s0-.74,0-1.1Zm1.78,1.78h3.54v-3.52h-3.54Z" transform="translate(-57.4 -20.74)" fill="#b2edf5"/>
      <path d="M115.14,878.51h-2.3a1.18,1.18,0,0,1-1.29-1.28q0-2.33,0-4.65a1.11,1.11,0,0,1,1.13-1.19q2.42,0,4.84,0a1.14,1.14,0,0,1,1.15,1.22c0,1.55,0,3.1,0,4.65a1.18,1.18,0,0,1-1.28,1.25Zm-1.79-5.34v3.52h3.51v-3.52Z" transform="translate(-57.4 -20.74)" fill="#b2edf5"/>
      <path d="M102.61,874.91c0-.75,0-1.5,0-2.25a1.16,1.16,0,0,1,1.24-1.28c1.53,0,3.07,0,4.6,0a1.18,1.18,0,0,1,1.28,1.34q0,2.21,0,4.41a1.22,1.22,0,0,1-1.39,1.38H104a1.22,1.22,0,0,1-1.38-1.39q0-1.1,0-2.21Zm5.32-1.77c-1.13,0-2.23,0-3.32,0a.32.32,0,0,0-.22.22c0,1.1,0,2.2,0,3.32h3.55Z" transform="translate(-57.4 -20.74)" fill="#b2edf5"/>
      <path d="M118.67,866c0,.75,0,1.5,0,2.25a1.21,1.21,0,0,1-1.3,1.33h-4.56a1.18,1.18,0,0,1-1.28-1.25q0-2.33,0-4.65a1.14,1.14,0,0,1,1.2-1.23q2.37,0,4.75,0a1.15,1.15,0,0,1,1.18,1.24c0,.77,0,1.53,0,2.3Zm-5.35-1.75v3.53h3.54v-3.53Z" transform="translate(-57.4 -20.74)" fill="#b2edf5"/>
      <path d="M121.37,866c0-.8,0-1.6,0-2.4a1.13,1.13,0,0,1,1.13-1.18q2.44,0,4.89,0a1.12,1.12,0,0,1,1.1,1.22q0,2.37,0,4.74a1.14,1.14,0,0,1-1.12,1.15c-1.61,0-3.23,0-4.84,0a1.16,1.16,0,0,1-1.15-1.23C121.36,867.57,121.37,866.8,121.37,866Zm1.78-1.81v3.53h3.54v-3.53Z" transform="translate(-57.4 -20.74)" fill="#b2edf5"/>
      <path d="M116,858h2.54c.64,0,1,.35,1,.89s-.38.89-1,.89h-5.08c-.64,0-1-.35-1-.89s.39-.88,1-.89Z" transform="translate(-57.4 -20.74)" fill="#b2edf5"/>
      <path d="M124.93,859.75h-2.54c-.65,0-1-.34-1-.89s.38-.88,1-.88h5c.68,0,1.06.33,1.07.89s-.39.88-1.07.89Z" transform="translate(-57.4 -20.74)" fill="#b2edf5"/>
      <path d="M107,859.75h-2.49c-.68,0-1.06-.35-1-.91s.39-.86,1-.87h5.08a.88.88,0,0,1,1,.86c0,.55-.35.91-1,.91C108.77,859.76,107.91,859.75,107,859.75Z" transform="translate(-57.4 -20.74)" fill="#b2edf5"/>
    </g>
    <g>
      <path d="M1867,74.93q0,10.85,0,21.7a3.09,3.09,0,0,1-2.3,3.15,3.69,3.69,0,0,1-.95.11h-27.42a3.1,3.1,0,0,1-3.27-3.3q0-21.7,0-43.41a3.09,3.09,0,0,1,3.23-3.29q13.76,0,27.51,0a3.08,3.08,0,0,1,3.19,3.27Q1867,64.06,1867,74.93Zm-1.78,0q0-10.83,0-21.66c0-1.12-.5-1.63-1.6-1.63h-27.18c-1.09,0-1.6.5-1.6,1.58q0,21.66,0,43.31c0,1.07.51,1.57,1.6,1.57h27.13c1.17,0,1.65-.49,1.65-1.67Q1865.19,85.71,1865.19,74.95Z" transform="translate(-57.4 -20.74)" fill="#b2edf5"/>
      <path d="M1850,63.28h-11.86c-1.07,0-1.53-.45-1.53-1.5q0-3,0-5.9c0-1.05.46-1.51,1.53-1.51h23.71c1.07,0,1.53.46,1.53,1.51q0,3,0,6a1.29,1.29,0,0,1-1.48,1.46Zm11.6-7.09h-23.2v5.29h23.2Z" transform="translate(-57.4 -20.74)" fill="#b2edf5"/>
      <path d="M1855.37,87.39q0-3.29,0-6.58c0-1,.43-1.43,1.43-1.44,1.42,0,2.85,0,4.27,0,1,0,1.41.44,1.41,1.45q0,6.55,0,13.1c0,1.09-.42,1.51-1.5,1.51h-4.27a1.21,1.21,0,0,1-1.34-1.33Q1855.37,90.75,1855.37,87.39Zm5.33,6.24V81.17h-3.54V93.63Z" transform="translate(-57.4 -20.74)" fill="#b2edf5"/>
      <path d="M1852.67,91.9c0,.75,0,1.5,0,2.25a1.2,1.2,0,0,1-1.29,1.28h-4.56a1.18,1.18,0,0,1-1.28-1.29q0-2.25,0-4.51a1.19,1.19,0,0,1,1.33-1.33q2.21,0,4.41,0a1.22,1.22,0,0,1,1.38,1.39C1852.67,90.43,1852.67,91.16,1852.67,91.9Zm-1.8-1.79h-3.52v3.5h3.52Z" transform="translate(-57.4 -20.74)" fill="#b2edf5"/>
      <path d="M1836.61,91.85c0-.75,0-1.5,0-2.25a1.17,1.17,0,0,1,1.27-1.29q2.3,0,4.6,0a1.18,1.18,0,0,1,1.24,1.24q0,2.33,0,4.65a1.17,1.17,0,0,1-1.23,1.24q-2.33,0-4.65,0a1.17,1.17,0,0,1-1.24-1.23C1836.6,93.42,1836.61,92.64,1836.61,91.85Zm5.32,1.78V90.11h-3.52v3.52Z" transform="translate(-57.4 -20.74)" fill="#b2edf5"/>
      <path d="M1836.61,74c0-.74,0-1.47,0-2.21a1.19,1.19,0,0,1,1.28-1.34q2.28,0,4.56,0a1.2,1.2,0,0,1,1.29,1.34q0,2.23,0,4.46a1.21,1.21,0,0,1-1.33,1.34H1838a1.21,1.21,0,0,1-1.38-1.38c0-.37,0-.73,0-1.1s0-.74,0-1.1Zm1.78,1.78h3.54V72.25h-3.54Z" transform="translate(-57.4 -20.74)" fill="#b2edf5"/>
      <path d="M1849.14,86.51h-2.3a1.18,1.18,0,0,1-1.29-1.28q0-2.33,0-4.65a1.11,1.11,0,0,1,1.13-1.19q2.42,0,4.84,0a1.14,1.14,0,0,1,1.15,1.22c0,1.55,0,3.1,0,4.65a1.18,1.18,0,0,1-1.28,1.25Zm-1.79-5.34v3.52h3.51V81.17Z" transform="translate(-57.4 -20.74)" fill="#b2edf5"/>
      <path d="M1836.61,82.91c0-.75,0-1.5,0-2.25a1.16,1.16,0,0,1,1.24-1.28c1.53,0,3.07,0,4.6,0a1.18,1.18,0,0,1,1.28,1.34q0,2.21,0,4.41a1.22,1.22,0,0,1-1.39,1.38H1838a1.22,1.22,0,0,1-1.38-1.39q0-1.1,0-2.21Zm5.32-1.77c-1.13,0-2.23,0-3.32,0a.32.32,0,0,0-.22.22c0,1.1,0,2.2,0,3.32h3.55Z" transform="translate(-57.4 -20.74)" fill="#b2edf5"/>
      <path d="M1852.67,74c0,.75,0,1.5,0,2.25a1.21,1.21,0,0,1-1.3,1.33h-4.56a1.18,1.18,0,0,1-1.28-1.25q0-2.33,0-4.65a1.14,1.14,0,0,1,1.2-1.23q2.37,0,4.75,0a1.15,1.15,0,0,1,1.18,1.24c0,.77,0,1.53,0,2.3Zm-5.35-1.75v3.53h3.54V72.23Z" transform="translate(-57.4 -20.74)" fill="#b2edf5"/>
      <path d="M1855.37,74c0-.8,0-1.6,0-2.4a1.13,1.13,0,0,1,1.13-1.18q2.44,0,4.89,0a1.12,1.12,0,0,1,1.1,1.22q0,2.37,0,4.74a1.14,1.14,0,0,1-1.12,1.15c-1.61,0-3.23,0-4.84,0a1.16,1.16,0,0,1-1.15-1.23C1855.36,75.57,1855.37,74.8,1855.37,74Zm1.78-1.81v3.53h3.54V72.23Z" transform="translate(-57.4 -20.74)" fill="#b2edf5"/>
      <path d="M1850,66h2.54c.64,0,1,.35,1,.89s-.38.89-1,.89h-5.08c-.64,0-1-.35-1-.89s.39-.88,1-.89Z" transform="translate(-57.4 -20.74)" fill="#b2edf5"/>
      <path d="M1858.93,67.75h-2.54c-.65,0-1-.34-1-.89s.38-.88,1-.88h5c.68,0,1.06.33,1.07.89s-.39.88-1.07.89Z" transform="translate(-57.4 -20.74)" fill="#b2edf5"/>
      <path d="M1841,67.75h-2.49c-.68,0-1.06-.35-1-.91s.39-.86,1-.87h5.08a.88.88,0,0,1,1,.86c0,.55-.35.91-1,.91C1842.77,67.76,1841.91,67.75,1841,67.75Z" transform="translate(-57.4 -20.74)" fill="#b2edf5"/>
    </g>
  </g>
</svg>
